<svg width="432" height="575" viewBox="0 0 432 575" fill="none" xmlns="http://www.w3.org/2000/svg">
<g clip-path="url(#clip0_2073_5256)">
<rect width="432" height="575" rx="10" fill="#FFFCF5"/>
<mask id="path-2-inside-1_2073_5256" fill="white">
<path d="M79.5 448.591L94.341 279L87.6683 449.051L123.563 282.682L95.7215 450.662L152.209 290.045L103.545 453.193L179.705 300.976L111.023 456.645L205.706 315.127L117.925 461.017L229.636 332.501L124.253 466.31L251.149 352.75L129.89 472.293L270.017 375.531L134.722 478.966L285.778 400.498L138.634 486.099L298.433 427.306L141.74 493.808L307.522 455.379L143.696 501.747L313.044 484.488L144.731 509.916L315 513.942L144.731 518.084L313.044 543.512L143.696 526.253L307.522 572.506L141.74 534.192L298.433 600.694L138.634 541.786L285.778 627.387L134.722 549.034L270.017 652.354L129.89 555.707L251.149 675.135L124.253 561.69L229.636 695.384L117.925 566.868L205.706 712.758L111.023 571.24L179.705 727.024L103.545 574.807L152.209 737.955L95.7215 577.338L123.563 745.318L87.6683 578.834L94.341 749L79.5 579.409L64.659 749L71.3317 578.834L35.4372 745.318L63.2784 577.338L6.79066 737.955L55.4553 574.807L-20.7054 727.024L47.9773 571.24L-46.7059 712.758L41.0745 566.868L-70.6356 695.384L34.7469 561.69L-92.1492 675.135L29.1097 555.707L-111.017 652.354L24.2777 549.034L-126.778 627.387L20.3661 541.786L-139.433 600.694L17.2599 534.192L-148.522 572.506L15.3041 526.253L-154.044 543.512L14.2687 518.084L-156 513.942L14.2687 509.916L-154.044 484.488L15.3041 501.747L-148.522 455.379L17.2599 493.808L-139.433 427.306L20.3661 486.099L-126.778 400.498L24.2777 478.966L-111.017 375.531L29.1097 472.293L-92.1492 352.75L34.7469 466.31L-70.6356 332.501L41.0745 461.017L-46.7059 315.127L47.9773 456.645L-20.7054 300.976L55.4553 453.193L6.79066 290.045L63.2784 450.662L35.4372 282.682L71.3317 449.051L64.659 279L79.5 448.591Z"/>
</mask>
<path d="M79.5 448.591L94.341 279L87.6683 449.051L123.563 282.682L95.7215 450.662L152.209 290.045L103.545 453.193L179.705 300.976L111.023 456.645L205.706 315.127L117.925 461.017L229.636 332.501L124.253 466.31L251.149 352.75L129.89 472.293L270.017 375.531L134.722 478.966L285.778 400.498L138.634 486.099L298.433 427.306L141.74 493.808L307.522 455.379L143.696 501.747L313.044 484.488L144.731 509.916L315 513.942L144.731 518.084L313.044 543.512L143.696 526.253L307.522 572.506L141.74 534.192L298.433 600.694L138.634 541.786L285.778 627.387L134.722 549.034L270.017 652.354L129.89 555.707L251.149 675.135L124.253 561.69L229.636 695.384L117.925 566.868L205.706 712.758L111.023 571.24L179.705 727.024L103.545 574.807L152.209 737.955L95.7215 577.338L123.563 745.318L87.6683 578.834L94.341 749L79.5 579.409L64.659 749L71.3317 578.834L35.4372 745.318L63.2784 577.338L6.79066 737.955L55.4553 574.807L-20.7054 727.024L47.9773 571.24L-46.7059 712.758L41.0745 566.868L-70.6356 695.384L34.7469 561.69L-92.1492 675.135L29.1097 555.707L-111.017 652.354L24.2777 549.034L-126.778 627.387L20.3661 541.786L-139.433 600.694L17.2599 534.192L-148.522 572.506L15.3041 526.253L-154.044 543.512L14.2687 518.084L-156 513.942L14.2687 509.916L-154.044 484.488L15.3041 501.747L-148.522 455.379L17.2599 493.808L-139.433 427.306L20.3661 486.099L-126.778 400.498L24.2777 478.966L-111.017 375.531L29.1097 472.293L-92.1492 352.75L34.7469 466.31L-70.6356 332.501L41.0745 461.017L-46.7059 315.127L47.9773 456.645L-20.7054 300.976L55.4553 453.193L6.79066 290.045L63.2784 450.662L35.4372 282.682L71.3317 449.051L64.659 279L79.5 448.591Z" fill="#D6FF00" stroke="#D6FF00" stroke-width="2" mask="url(#path-2-inside-1_2073_5256)"/>
<path d="M249.24 544.536C239.341 544.536 230.595 542.531 223 538.52C215.491 534.509 209.645 529.005 205.464 522.008C201.368 515.011 199.32 507.075 199.32 498.2C199.32 489.325 201.368 481.389 205.464 474.392C209.645 467.395 215.491 461.891 223 457.88C230.595 453.869 239.341 451.864 249.24 451.864C259.139 451.864 267.843 453.869 275.352 457.88C282.947 461.891 288.792 467.395 292.888 474.392C297.069 481.389 299.16 489.325 299.16 498.2C299.16 507.075 297.069 515.011 292.888 522.008C288.792 529.005 282.947 534.509 275.352 538.52C267.843 542.531 259.139 544.536 249.24 544.536ZM249.24 533.272C256.493 533.272 262.893 531.779 268.44 528.792C273.987 525.805 278.296 521.667 281.368 516.376C284.44 511 285.976 504.941 285.976 498.2C285.976 491.459 284.44 485.443 281.368 480.152C278.296 474.776 273.987 470.595 268.44 467.608C262.893 464.621 256.493 463.128 249.24 463.128C241.987 463.128 235.587 464.621 230.04 467.608C224.493 470.595 220.184 474.776 217.112 480.152C214.04 485.443 212.504 491.459 212.504 498.2C212.504 504.941 214.04 511 217.112 516.376C220.184 521.667 224.493 525.805 230.04 528.792C235.587 531.779 241.987 533.272 249.24 533.272ZM365.065 488.6C395.017 488.6 409.993 497.859 409.993 516.376C409.993 524.909 406.11 531.736 398.345 536.856C390.665 541.976 378.206 544.536 360.969 544.536C343.39 544.536 330.804 541.976 323.209 536.856C315.7 531.736 311.945 524.483 311.945 515.096V511.64H325.129V514.84C325.129 520.899 327.817 525.592 333.193 528.92C338.654 532.248 347.913 533.912 360.969 533.912C384.862 533.912 396.809 527.896 396.809 515.864C396.809 503.917 385.161 497.944 361.865 497.944H343.817V489.368L392.073 461.976V460.312C385.076 462.787 377.652 464.024 369.801 464.024H315.785V453.4H406.153V464.024L362.249 488.6H365.065Z" fill="#010101"/>
</g>
<defs>
<clipPath id="clip0_2073_5256">
<rect width="432" height="575" rx="10" fill="white"/>
</clipPath>
</defs>
</svg>
