<svg width="44" height="44" viewBox="0 0 44 44" fill="none" xmlns="http://www.w3.org/2000/svg">
<path d="M6.43737 6.43738C2.46201 10.424 0 15.924 0 22C0 28.076 2.46201 33.576 6.43737 37.5626C11.4969 32.1643 11.4969 11.8357 6.43737 6.43738Z" fill="white"/>
<path d="M37.5625 6.43737C33.5759 2.46201 28.0759 0 21.9999 0C15.9239 0 10.4239 2.46201 6.43726 6.43737C11.8356 11.4969 32.1642 11.4969 37.5625 6.43737Z" fill="white"/>
<path d="M37.5627 37.5626C41.5381 33.576 44.0001 28.076 44.0001 22C44.0001 15.924 41.5381 10.424 37.5627 6.43738C32.5032 11.8357 32.5032 32.1643 37.5627 37.5626Z" fill="white"/>
<path d="M6.43726 37.5626C10.4239 41.538 15.9239 44 21.9999 44C28.0759 44 33.5759 41.538 37.5625 37.5626C32.1642 32.5031 11.8356 32.5031 6.43726 37.5626Z" fill="white"/>
</svg>
