<svg width="48" height="47" viewBox="0 0 48 47" fill="none" xmlns="http://www.w3.org/2000/svg">
<path d="M41.7905 0.144764C41.732 0.0482549 41.6499 0 41.5679 0H34.9016C34.8196 0 34.7376 0.0482549 34.679 0.144764C34.2689 0.820329 33.8706 1.51198 33.4957 2.21971C33.1208 1.51198 32.7224 0.820329 32.3124 0.144764C32.2538 0.0482549 32.1718 0 32.0898 0H25.4117C25.3297 0 25.2477 0.0482549 25.1891 0.144764C24.7791 0.820329 24.3807 1.51198 24.0058 2.21971C23.6309 1.51198 23.2326 0.820329 22.8225 0.144764C22.764 0.0482549 22.6819 0 22.5999 0H15.9336C15.8516 0 15.7696 0.0482549 15.711 0.144764C15.3009 0.820329 14.9026 1.51198 14.5277 2.21971C14.1528 1.51198 13.7544 0.820329 13.3444 0.144764C13.2858 0.0482549 13.2038 0 13.1218 0H6.45545C6.37344 0 6.29143 0.0482549 6.23285 0.144764C2.2143 6.67522 0 14.9589 0 23.5C0 32.0411 2.2143 40.3248 6.22113 46.8552C6.27971 46.9517 6.36172 47 6.44373 47H13.1101C13.1921 47 13.2741 46.9517 13.3327 46.8552C13.7427 46.1797 14.1411 45.488 14.516 44.7803C14.8909 45.488 15.2892 46.1797 15.6993 46.8552C15.7579 46.9517 15.8399 47 15.9219 47H22.5999C22.6819 47 22.764 46.9517 22.8225 46.8552C23.2326 46.1797 23.6309 45.488 24.0058 44.7803C24.3807 45.488 24.7791 46.1797 25.1891 46.8552C25.2477 46.9517 25.3297 47 25.4117 47H32.0781C32.1601 47 32.2421 46.9517 32.3007 46.8552C32.7107 46.1797 33.1091 45.488 33.484 44.7803C33.8589 45.488 34.2572 46.1797 34.6673 46.8552C34.7259 46.9517 34.8079 47 34.8899 47H41.5562C41.6382 47 41.7202 46.9517 41.7788 46.8552C45.7857 40.3409 48 32.0411 48 23.5C48.0117 14.9589 45.7974 6.67522 41.7905 0.144764ZM25.5523 0.804244H31.9492C32.371 1.49589 32.7576 2.18754 33.1325 2.91136C30.8479 7.46338 29.3483 12.6749 28.7508 18.1277C28.1533 12.6749 26.6536 7.46338 24.369 2.91136C24.7439 2.20363 25.1306 1.49589 25.5523 0.804244ZM29.0437 23.5C29.0437 16.3905 30.6136 9.47399 33.4957 3.63518C36.3778 9.47399 37.9477 16.4066 37.9477 23.5C37.9477 30.6095 36.3778 37.526 33.4957 43.3648C30.6136 37.526 29.0437 30.6095 29.0437 23.5ZM28.4579 23.5C28.4579 30.6095 26.8879 37.526 24.0058 43.3648C21.1237 37.526 19.5538 30.5934 19.5538 23.5C19.5538 16.3905 21.1237 9.47399 24.0058 3.63518C26.8879 9.47399 28.4579 16.3905 28.4579 23.5ZM16.0625 0.804244H22.4593C22.8811 1.49589 23.2677 2.18754 23.6426 2.91136C21.358 7.46338 19.8584 12.6749 19.2609 18.1277C18.6634 12.6749 17.1638 7.46338 14.8792 2.91136C15.2541 2.20363 15.6524 1.49589 16.0625 0.804244ZM18.968 23.5C18.968 30.6095 17.3981 37.526 14.516 43.3648C11.6339 37.526 10.0639 30.5934 10.0639 23.5C10.0639 16.3905 11.6339 9.47399 14.516 3.63518C17.4098 9.47399 18.968 16.3905 18.968 23.5ZM12.9695 46.1958H6.57261C2.70637 39.8422 0.574078 31.7837 0.574078 23.5C0.574078 15.2163 2.70637 7.17385 6.57261 0.804244H12.9695C13.3912 1.49589 13.7779 2.18754 14.1528 2.91136C11.1184 8.9271 9.47815 16.117 9.47815 23.4839C9.47815 30.8508 11.1301 38.0407 14.1528 44.0565C13.7896 44.7964 13.3912 45.5041 12.9695 46.1958ZM22.4593 46.1958H16.0625C15.6407 45.5041 15.2541 44.8125 14.8792 44.0886C17.1638 39.5366 18.6634 34.3251 19.2609 28.8723C19.8584 34.3251 21.358 39.5366 23.6426 44.0886C23.2677 44.7964 22.8811 45.5041 22.4593 46.1958ZM31.9492 46.1958H25.5523C25.1306 45.5041 24.7439 44.8125 24.369 44.0886C26.6536 39.5366 28.1533 34.3251 28.7508 28.8723C29.3483 34.3251 30.8479 39.5366 33.1325 44.0886C32.7576 44.7964 32.3593 45.5041 31.9492 46.1958ZM41.4273 46.1958H35.0305C34.6087 45.5041 34.2221 44.8125 33.8472 44.0886C36.8816 38.0729 38.5218 30.883 38.5218 23.5161C38.5218 16.1492 36.8699 8.95927 33.8472 2.94353C34.2221 2.21971 34.6204 1.51198 35.0305 0.836413H41.4273C45.2936 7.18994 47.4259 15.2485 47.4259 23.5322C47.4259 31.7837 45.2936 39.8261 41.4273 46.1958Z" fill="white"/>
</svg>
