<svg width="274" height="302" viewBox="0 0 274 302" fill="none" xmlns="http://www.w3.org/2000/svg">
<path d="M79.6291 302C74.1251 302 68.6211 300.187 62.9157 296.493C49.4243 287.761 41.7053 273.388 42.7121 259.015C43.182 252.164 45.9339 245.851 48.6188 239.739C51.3037 233.627 54.0557 227.314 54.4584 220.598C55.4652 203.471 40.7656 186.411 28.9522 172.777C25.6632 169.016 22.5756 165.389 19.9578 162.031C6.5335 144.568 -3.40052 129.389 1.09664 105.747C1.49937 103.665 1.83498 101.449 2.23771 99.3669C4.45272 85.7326 6.80199 71.5611 22.777 67.6656C35.5301 64.5089 48.9544 67.3969 61.976 70.1506C70.9032 72.0312 80.0989 73.979 88.8918 73.9118C110.438 73.7775 127.89 55.5089 143.26 39.3896C146.751 35.7628 150.04 32.2702 153.262 29.1807C154.268 28.2404 155.275 27.233 156.416 26.0912C169.975 12.7928 192.662 -9.57279 210.785 4.46444C223.807 14.539 225.954 35.4269 227.7 52.2851C227.968 54.9044 228.237 57.3223 228.505 59.6731C228.841 62.3596 229.176 65.0462 229.512 67.7327C231.794 86.4714 234.143 105.815 238.909 124.352C242.601 138.792 249.111 152.359 255.488 165.456C258.508 171.702 261.596 178.15 264.348 184.531C269.986 197.829 281.8 225.433 266.362 242.359C255.824 253.844 237.432 253.441 222.665 253.038H221.323C214.678 252.903 207.832 252.433 201.254 251.963C186.487 250.956 171.183 249.948 156.416 252.232C137.756 255.12 125.406 268.284 113.458 280.978C112.183 282.321 110.908 283.664 109.632 285.008C101.578 293.47 94.9999 298.239 88.3549 300.59C85.4015 301.53 82.5153 302 79.6291 302ZM34.7917 66.9939C30.7644 66.9939 26.8043 67.3969 22.9112 68.3372C7.40608 72.1655 5.12394 86.0684 2.90892 99.5012C2.57332 101.65 2.17058 103.8 1.76785 105.949C-2.7293 129.322 7.13759 144.434 20.4948 161.695C23.0454 165.053 26.133 168.613 29.422 172.374C41.3026 186.142 56.1365 203.202 55.1296 220.665C54.7269 227.515 51.9749 233.896 49.2229 240.075C46.6052 246.12 43.8532 252.366 43.3833 259.082C42.3765 273.187 50.0284 287.291 63.3185 295.888C82.2468 308.179 96.5437 297.634 109.163 284.47C110.438 283.127 111.713 281.784 112.989 280.44C125.003 267.612 137.488 254.381 156.349 251.493C171.183 249.209 186.487 250.217 201.321 251.224C207.899 251.694 214.745 252.164 221.323 252.299H222.665C237.298 252.635 255.488 253.105 265.825 241.821C280.994 225.232 269.315 197.896 263.677 184.732C260.925 178.351 257.837 171.904 254.884 165.658C248.574 152.493 241.996 138.859 238.305 124.419C233.539 105.815 231.19 86.4714 228.908 67.7327C228.572 65.0462 228.237 62.3596 227.901 59.6731C227.632 57.3895 227.364 54.9044 227.095 52.2851C225.35 35.6284 223.202 14.8077 210.382 4.93459C192.729 -8.69966 170.311 13.3301 156.886 26.4942C155.745 27.5688 154.738 28.6434 153.731 29.5837C150.51 32.6732 147.221 36.1657 143.73 39.7926C128.225 55.9791 110.706 74.3819 88.8918 74.5163C80.0318 74.5834 70.769 72.6357 61.8418 70.7551C52.8475 68.9417 43.7189 66.9939 34.7917 66.9939Z" fill="#FFFCF5" fill-opacity="0.2"/>
<path d="M82.1797 290.112C77.8839 290.112 73.6552 288.97 69.3594 286.619C56.7406 279.702 49.2229 266.067 50.2297 251.896C50.6325 245.918 52.9146 240.075 55.1296 234.5C57.6803 228.053 60.298 221.403 60.0295 214.486C59.4254 198.971 47.3435 184.665 36.604 172.038C33.852 168.747 31.1672 165.657 28.885 162.635C17.4743 147.792 5.66092 132.411 9.88959 112.195C12.5073 99.837 16.5346 86.4042 32.1069 82.8446C42.3765 80.4938 53.0488 81.8371 63.3856 83.1132C71.7758 84.1207 80.4345 85.1953 88.8247 84.3222C109.431 82.1058 126.681 64.9118 141.918 49.7328C145.408 46.2403 148.697 43.0164 151.919 39.9941C152.993 38.9866 154.134 37.912 155.342 36.7702C167.827 24.8822 188.635 5.00173 205.08 17.0912C217.027 25.8897 219.108 46.0388 220.585 60.8148C220.786 63.0312 220.987 65.1133 221.256 67.0611C221.726 70.8894 222.128 74.8521 222.598 78.6132C224.343 94.0609 226.089 110.046 230.049 125.359C233.472 138.59 239.379 151.284 245.017 163.508C248.037 170.023 251.192 176.807 253.877 183.523C259.18 196.687 267.973 218.717 257.166 233.829C247.97 246.657 229.109 246.12 215.349 245.717L213.872 245.65C207.899 245.515 201.656 244.978 195.615 244.508C181.855 243.366 167.626 242.224 154.201 244.911C137.555 248.269 125.675 259.888 114.13 271.105C112.854 272.381 111.579 273.59 110.237 274.866L110.102 274.597L110.304 274.866C105.068 279.903 98.7587 285.411 91.6438 288.231C88.422 289.44 85.2673 290.112 82.1797 290.112ZM44.5915 82.2401C40.43 82.2401 36.3355 82.5759 32.2411 83.5162C17.0716 86.9416 13.1114 100.173 10.5608 112.329C6.39926 132.21 18.0784 147.456 29.422 162.232C31.7041 165.187 34.3219 168.277 37.0739 171.568C47.8134 184.329 60.0295 198.702 60.6336 214.418C60.9021 221.471 58.2843 228.187 55.7337 234.702C53.5187 240.276 51.3037 245.985 50.901 251.896C49.8941 265.866 57.2775 279.231 69.695 286.015C74.1251 288.433 78.2866 289.44 82.2468 289.44C92.9863 289.44 101.981 281.918 109.834 274.329C111.109 273.12 112.384 271.843 113.727 270.567C125.339 259.284 137.287 247.597 154.134 244.172C167.626 241.418 181.923 242.627 195.75 243.769C201.791 244.239 207.966 244.776 213.94 244.911L215.416 244.978C229.78 245.381 247.702 245.918 256.629 233.359C267.234 218.515 258.508 196.687 253.273 183.657C250.588 176.941 247.433 170.157 244.413 163.643C238.708 151.352 232.868 138.658 229.445 125.359C225.485 110.046 223.672 94.0609 221.994 78.5461C221.591 74.7177 221.122 70.8222 220.652 66.9939C220.45 65.0462 220.182 62.9641 219.981 60.7477C218.504 46.106 216.49 26.0912 204.744 17.4942C188.769 5.74053 168.163 25.4195 155.879 37.1732C154.671 38.315 153.53 39.4568 152.456 40.397C149.234 43.4194 145.945 46.6433 142.455 50.1358C127.151 65.382 109.767 82.6431 88.959 84.9266C80.5016 85.8669 71.7758 84.7923 63.3856 83.7177C57.1433 82.9789 50.8338 82.2401 44.5915 82.2401Z" fill="#FFFCF5" fill-opacity="0.2"/>
<path d="M86.2741 277.552C82.1797 277.552 77.951 276.478 73.4538 273.858C62.4459 267.545 56.4049 256.597 56.8077 243.903C57.009 238.53 58.4857 233.224 59.8953 228.12C61.7747 221.471 63.6541 214.553 62.6473 207.501C60.835 194.605 50.6996 182.247 41.7724 171.299C39.6245 168.613 37.5437 166.128 35.7314 163.71C35.1273 162.904 34.4561 162.031 33.7849 161.225C24.5221 149.202 13.984 135.568 17.9442 119.785C21.0318 107.628 28.4152 99.9713 39.893 97.0161C48.0147 94.9341 56.5392 95.0684 64.8623 95.2027C73.3867 95.337 82.1797 95.4714 90.5699 93.1206C108.559 88.0833 124.265 73.576 138.092 60.6805C141.717 57.3223 145.14 54.1656 148.496 51.2104C149.57 50.2701 150.711 49.2627 151.919 48.1881C163.263 38.0463 182.191 20.9867 197.025 30.121C208.771 37.3075 211.188 56.0462 212.933 69.7476C213.134 71.3596 213.335 72.9043 213.537 74.3819C214.141 78.4789 214.678 82.6431 215.148 86.6729C216.826 99.837 218.571 113.404 222.196 126.367C225.35 137.449 229.982 148.329 234.479 158.807C237.566 165.926 240.721 173.314 243.339 180.635C247.903 193.329 254.817 212.605 244.681 226.642C236.224 238.329 220.048 238.262 207.093 238.194H206.623C201.522 238.194 196.219 237.926 191.118 237.59C177.962 236.918 164.337 236.179 151.785 239.538C138.226 243.232 127.285 252.366 116.747 261.232C115.204 262.508 113.66 263.784 112.116 265.06C104.598 271.373 96.0067 277.552 86.2741 277.552ZM58.8213 95.8072C52.5119 95.8072 46.2024 96.143 40.0944 97.6878C28.885 100.576 21.6359 108.098 18.6154 119.986C14.7223 135.434 25.1262 148.934 34.3219 160.889C34.9931 161.762 35.5972 162.568 36.2684 163.374C38.0807 165.792 40.1615 168.277 42.3094 170.963C51.3037 181.911 61.4391 194.336 63.3185 207.433C64.3253 214.62 62.3788 221.605 60.4994 228.321C59.0898 233.359 57.6131 238.597 57.4789 243.903C57.0762 256.329 62.9829 267.075 73.7895 273.254C88.6905 281.851 101.175 273.254 111.78 264.59C113.324 263.314 114.868 262.038 116.412 260.761C127.017 251.896 137.958 242.694 151.718 238.933C164.404 235.508 178.097 236.247 191.252 236.918C196.354 237.187 201.656 237.456 206.758 237.523H207.227C220.048 237.59 236.023 237.657 244.279 226.239C253.474 213.545 248.642 196.822 242.869 180.837C240.251 173.516 237.097 166.128 234.009 159.008C229.512 148.531 224.88 137.65 221.659 126.501C217.967 113.538 216.222 99.9042 214.544 86.6729C214.007 82.6431 213.47 78.4789 212.933 74.3819C212.731 72.9043 212.53 71.3596 212.329 69.7476C210.583 56.1806 208.234 37.6433 196.689 30.5912C182.325 21.7927 163.598 38.5836 152.389 48.591C151.181 49.6657 150.04 50.6731 148.966 51.6134C145.543 54.5686 142.186 57.7253 138.562 61.0835C124.668 73.979 108.894 88.6207 90.7712 93.6579C82.3139 96.0087 73.4538 95.8743 64.9294 95.74C62.8486 95.8743 60.835 95.8072 58.8213 95.8072Z" fill="#FFFCF5" fill-opacity="0.2"/>
<path d="M91.174 264.791C86.8111 264.791 82.2468 263.649 77.5483 260.896C68.6211 255.657 62.9157 246.12 62.1774 235.374C61.8418 230.538 62.513 225.769 63.1842 221.135C63.9897 215.359 64.8623 209.381 63.7212 203.471C61.3719 191.18 52.6461 180.232 44.9942 170.628C43.5847 168.881 42.2423 167.202 40.9669 165.523C25.4618 145.441 24.8577 132.747 27.0727 125.695C29.3549 118.441 35.6643 113.068 45.934 109.844C52.6461 107.695 59.6268 106.822 66.339 105.949C74.5278 104.874 83.0523 103.8 90.9726 100.509C106.679 93.9266 120.238 82.5759 133.394 71.5611C136.75 68.7402 140.24 65.8521 143.663 63.0984C144.67 62.2925 145.744 61.4193 146.885 60.479C158.497 50.9418 175.949 36.5016 189.977 45.5687C199.844 51.9492 202.663 67.2626 204.677 78.4118C204.945 79.6879 205.147 80.8968 205.348 82.1058C206.153 86.1356 206.892 90.2326 207.563 94.1281C209.51 104.941 211.523 116.158 214.812 126.971C217.564 135.904 220.987 144.837 224.276 153.434C227.23 161.09 230.25 168.949 232.801 176.874C238.305 193.866 237.969 207.232 231.66 216.501C225.887 225.097 215.081 230 199.71 231.008C194.944 231.344 190.111 231.411 185.413 231.545C174.808 231.747 163.8 231.948 153.262 234.903C140.911 238.329 130.373 245.448 120.103 252.366C118.291 253.575 116.479 254.851 114.599 256.06C107.417 260.627 99.5642 264.791 91.174 264.791ZM180.177 43.2179C168.7 43.2179 156.215 53.494 147.355 60.8148C146.214 61.7551 145.14 62.6954 144.133 63.5014C140.71 66.2551 137.219 69.1432 133.863 71.964C120.708 82.9789 107.015 94.3967 91.2411 101.046C83.1865 104.404 74.662 105.479 66.4061 106.553C59.6939 107.427 52.7132 108.3 46.0682 110.449C36.0671 113.673 29.8247 118.844 27.6768 125.897C25.5289 132.814 26.2002 145.24 41.5039 165.12C42.7792 166.799 44.1217 168.478 45.5312 170.225C53.2502 179.963 62.0432 190.978 64.3924 203.404C65.5335 209.448 64.6609 215.493 63.8555 221.336C63.1842 225.903 62.513 230.672 62.8486 235.441C63.5198 245.918 69.1581 255.254 77.8839 260.426C91.3082 268.284 103.323 262.642 114.398 255.321C116.21 254.112 118.023 252.903 119.835 251.627C130.105 244.709 140.71 237.523 153.194 234.097C163.8 231.142 174.808 230.941 185.48 230.739C190.179 230.672 195.011 230.538 199.777 230.202C214.946 229.194 225.552 224.359 231.19 215.963C237.365 206.829 237.701 193.732 232.264 176.941C229.713 169.083 226.693 161.158 223.739 153.568C220.45 144.971 217.027 136.038 214.208 127.105C210.852 116.292 208.838 105.076 206.892 94.1952C206.154 90.2326 205.482 86.2028 204.677 82.1729C204.475 81.0311 204.207 79.755 204.006 78.4789C201.992 67.4641 199.173 52.3522 189.574 46.106C186.621 44.0239 183.466 43.2179 180.177 43.2179Z" fill="#FFFCF5" fill-opacity="0.2"/>
<path d="M98.356 251.56C93.3219 251.56 88.4891 250.553 84.1262 248.538C75.4004 244.508 69.2923 236.65 67.0102 226.441C66.0033 222.008 65.9362 217.441 65.8691 213.008C65.802 208.105 65.6677 203.001 64.3253 198.232C61.5062 188.225 54.794 179.56 48.2161 171.165C47.2764 169.956 46.3367 168.747 45.397 167.538C35.6643 154.844 32.0398 144.77 34.1876 136.71C35.9328 130.262 41.5039 124.956 50.7667 121.128C56.5392 118.71 62.513 116.964 68.3526 115.285C75.4675 113.203 82.8509 111.121 89.7644 107.762C103.122 101.248 115.271 92.0461 127.084 83.1805C130.709 80.4267 134.467 77.673 138.092 74.9865C138.965 74.3148 139.971 73.6432 140.978 72.9044C151.181 65.3149 166.619 53.897 179.573 59.5388C189.977 64.1059 193.803 77.9417 196.622 88.0834L197.025 89.6282C200.582 102.389 204.811 115.218 208.906 127.643C213.671 142.15 218.571 157.128 222.531 172.105C226.357 186.68 225.417 199.105 219.712 207.971C214.544 216.03 205.617 221.269 193.132 223.418C188.635 224.224 184.138 224.762 179.708 225.366C171.653 226.374 163.33 227.448 155.275 229.799C143.26 233.224 132.185 239.135 121.446 244.844C120.305 245.448 119.097 246.12 117.956 246.724C111.579 249.881 104.867 251.56 98.356 251.56ZM171.989 58.5985C161.182 58.5985 149.503 67.2626 141.247 73.3074C140.24 74.0462 139.3 74.785 138.361 75.4566C134.669 78.1432 130.977 80.8969 127.353 83.6506C115.539 92.5162 103.323 101.718 89.9658 108.3C82.9851 111.725 75.6017 113.807 68.4868 115.889C62.7144 117.568 56.6734 119.315 50.9681 121.665C41.9066 125.494 36.4698 130.598 34.7917 136.844C32.711 144.702 36.3355 154.576 45.9339 167.135C46.8737 168.344 47.8134 169.553 48.7531 170.762C55.331 179.225 62.1774 187.956 64.9965 198.098C66.339 203.001 66.4732 208.105 66.5403 213.075C66.6074 217.441 66.6746 222.008 67.6814 226.374C69.9635 236.515 75.8031 244.038 84.4618 248C94.3287 252.5 106.679 251.829 117.553 246.053C118.761 245.448 119.902 244.777 121.043 244.172C131.783 238.463 142.925 232.553 155.007 229.06C163.061 226.777 171.452 225.702 179.506 224.627C183.936 224.09 188.433 223.486 192.931 222.68C205.147 220.53 213.94 215.426 219.041 207.501C224.612 198.837 225.552 186.613 221.793 172.172C217.9 157.262 212.933 142.285 208.234 127.777C204.14 115.352 199.978 102.524 196.354 89.7625L195.951 88.2177C193.199 78.2103 189.373 64.5089 179.238 60.0761C176.888 59.0687 174.472 58.5985 171.989 58.5985Z" fill="#FFFCF5" fill-opacity="0.2"/>
<path d="M106.545 240.142C91.711 240.142 78.0181 231.747 71.7087 217.441C69.8964 213.411 68.9567 209.045 68.0841 204.881C67.2786 201.12 66.4061 197.224 64.9965 193.598C61.7076 185.269 56.0022 177.948 50.5653 170.896L49.5585 169.62C42.4436 160.352 39.6916 153.031 41.0341 146.516C42.2422 140.605 46.8065 135.501 55.0625 130.934C60.6336 127.844 66.5403 125.225 72.3128 122.673C77.1455 120.523 82.1797 118.307 86.9453 115.822C97.819 110.113 108.223 103.061 118.224 96.2101C122.788 93.1206 127.554 89.8967 132.185 86.8744C132.857 86.4714 133.528 86.0012 134.199 85.5311C144.133 79.0834 157.692 70.2849 170.042 74.1133C179.976 77.2028 184.876 88.755 188.5 97.1504C197.361 117.904 207.093 142.419 211.926 167.202C214.208 178.687 213.201 188.695 209.107 196.956C204.744 205.687 197.159 212.001 186.353 215.829C176.687 219.254 166.686 222.344 157.02 225.366C145.073 229.06 132.722 232.956 121.043 237.388C116.21 239.269 111.31 240.142 106.545 240.142ZM163.665 73.9118C153.396 73.9118 142.723 80.8296 134.535 86.1356C133.863 86.6057 133.192 87.0087 132.521 87.4788C127.89 90.5012 123.124 93.6579 118.56 96.8146C108.491 103.665 98.0875 110.718 87.2138 116.426C82.4482 118.911 77.414 121.128 72.5141 123.277C66.8088 125.762 60.835 128.382 55.331 131.471C47.2764 135.971 42.8463 140.941 41.6382 146.65C40.3628 152.964 43.0477 160.15 50.0284 169.217L51.0352 170.493C56.5392 177.613 62.1774 184.934 65.5335 193.396C67.0102 197.09 67.8156 200.986 68.6882 204.814C69.5608 208.978 70.5005 213.277 72.3128 217.239C80.5016 235.777 101.376 244.239 120.775 236.851C132.454 232.418 144.871 228.59 156.819 224.829C166.485 221.806 176.486 218.717 186.151 215.292C206.959 207.904 215.886 190.911 211.255 167.404C206.422 142.687 196.689 118.173 187.829 97.4863C184.272 89.2251 179.439 77.8744 169.774 74.8521C167.76 74.1804 165.746 73.9118 163.665 73.9118Z" fill="#FFFCF5" fill-opacity="0.2"/>
<path d="M113.257 229.463C89.8315 229.463 77.6154 209.18 65.802 189.434C61.9089 182.986 58.2843 176.874 54.1899 171.501C44.7257 158.874 46.2695 149.874 59.6939 139.396C75.3333 127.24 93.926 116.964 111.847 107.024C117.016 104.136 121.916 101.449 126.681 98.6952C145.207 88.0834 164.538 81.5013 180.177 104.606C190.85 120.389 198.367 141.008 201.388 162.702C204.073 181.844 195.951 197.426 177.291 208.978C161.987 218.448 142.589 223.754 123.929 228.12C120.103 229.06 116.546 229.463 113.257 229.463ZM154.805 89.7625C145.744 89.7625 136.347 94.0609 127.084 99.2997C122.251 102.053 117.419 104.74 112.25 107.628C94.3287 117.568 75.736 127.844 60.1638 139.934C46.9408 150.21 45.4641 158.673 54.794 171.098C58.8884 176.538 62.513 182.65 66.4061 189.098C78.1524 208.642 90.3014 228.791 113.391 228.791C116.68 228.791 120.171 228.389 123.862 227.515C142.455 223.217 161.786 217.911 177.023 208.508C195.683 196.956 203.469 182.046 200.784 162.904C197.763 141.344 190.313 120.792 179.708 105.076C172.056 93.8595 163.598 89.7625 154.805 89.7625Z" fill="#FFFCF5" fill-opacity="0.2"/>
<path d="M121.312 218.986C95.4698 218.986 77.0784 195.21 62.1103 175.934C61.3719 174.993 60.6336 174.053 59.9624 173.113C56.9419 169.217 55.9351 164.986 57.009 160.419C61.5062 140.605 103.256 119.919 118.962 112.128C120.305 111.456 121.513 110.852 122.386 110.382C137.152 102.859 156.215 96.2773 172.458 112.195C184.675 124.217 190.044 144.367 190.984 159.21C193.266 194.672 159.101 214.956 126.346 218.717C124.601 218.918 122.99 218.986 121.312 218.986ZM149.369 103.061C139.971 103.061 130.709 106.889 122.654 110.986C121.714 111.456 120.573 112.061 119.231 112.732C103.592 120.523 62.1103 141.076 57.6802 160.62C56.6734 164.986 57.6131 169.083 60.4994 172.777C61.2377 173.717 61.976 174.657 62.7144 175.598C77.5483 194.807 95.8725 218.448 121.379 218.448C122.99 218.448 124.601 218.381 126.279 218.18C158.698 214.418 192.528 194.404 190.313 159.344C189.373 144.635 184.07 124.688 171.989 112.732C164.807 105.613 157.02 103.061 149.369 103.061Z" fill="#FFFCF5" fill-opacity="0.2"/>
<path d="M126.48 208.911C105.874 208.911 81.3742 191.583 67.48 174.12C65.3321 171.366 64.6609 168.277 65.4664 164.784C70.0978 145.374 119.164 121.8 119.634 121.531C138.495 112.732 153.597 112.397 164.538 120.456C174.136 127.509 180.043 141.21 180.446 157.061C181.05 184.598 157.423 207.904 127.755 208.911C127.353 208.844 126.95 208.911 126.48 208.911ZM146.08 115.285C138.428 115.285 129.702 117.568 119.969 122.068C116.21 123.814 103.726 130.195 91.6438 138.322C81.24 145.374 68.3526 155.65 66.2047 164.852C65.3993 168.143 66.0705 171.098 68.0841 173.65C81.8441 190.978 106.142 208.239 126.547 208.239C126.95 208.239 127.353 208.239 127.755 208.239C141.247 207.769 154.604 202.262 164.337 193.06C174.606 183.389 180.11 170.628 179.842 157.061C179.506 141.479 173.667 127.979 164.202 120.994C159.101 117.165 152.993 115.285 146.08 115.285Z" fill="#FFFCF5" fill-opacity="0.2"/>
<path d="M127.755 198.635C110.371 198.635 86.3412 187.016 77.3469 174.187C75.6689 171.837 75.2661 169.15 76.0716 166.128C78.2195 158.538 88.3549 150.344 96.5437 144.837C105.404 138.792 115.136 133.755 119.164 132.008C133.394 125.762 148.832 125.762 158.497 132.076C166.015 136.979 169.975 145.441 170.042 156.658C170.109 178.889 150.442 198.568 128.024 198.702C127.957 198.635 127.89 198.635 127.755 198.635ZM140.441 127.979C133.729 127.979 126.413 129.523 119.432 132.613C113.19 135.367 80.6359 152.292 76.7428 166.329C76.0045 169.083 76.3401 171.568 77.8839 173.784C86.8111 186.478 110.505 197.963 127.755 197.963C127.822 197.963 127.89 197.963 127.957 197.963C150.04 197.829 169.304 178.486 169.304 156.59C169.304 145.643 165.411 137.314 158.094 132.546C153.396 129.523 147.221 127.979 140.441 127.979Z" fill="#FFFCF5" fill-opacity="0.2"/>
<path d="M125.809 189.299C113.257 189.299 93.926 183.456 88.2878 173.046C87.0796 170.829 86.9453 168.411 87.885 165.859C89.9658 160.083 97.0136 154.374 102.652 150.613C109.565 145.978 116.613 142.62 119.768 141.277C129.232 137.382 143.126 136.307 151.516 141.814C156.551 145.173 159.168 150.478 159.168 157.598C159.235 174.187 145.073 188.359 127.621 189.165C126.95 189.299 126.346 189.299 125.809 189.299ZM136.414 138.725C130.642 138.725 124.735 140.001 119.969 141.949C114.264 144.299 92.3151 155.314 88.4891 166.06C87.6165 168.478 87.7508 170.695 88.8918 172.71C91.4425 177.478 97.4163 181.71 105.739 184.799C112.854 187.419 121.177 188.829 127.487 188.56C144.603 187.754 158.497 173.919 158.43 157.665C158.43 150.814 155.946 145.71 151.047 142.486C147.086 139.867 141.851 138.725 136.414 138.725Z" fill="#FFFCF5" fill-opacity="0.2"/>
<path d="M123.594 180.971C119.634 180.971 115.069 180.299 110.975 179.023C104.934 177.143 100.907 174.322 99.6313 171.031C96.4095 162.837 112.72 152.964 120.64 149.74C126.95 147.187 136.414 146.516 142.254 150.21C145.543 152.292 147.288 155.449 147.556 159.613C148.16 170.762 136.884 179.695 126.413 180.837C125.607 180.971 124.601 180.971 123.594 180.971ZM131.85 148.329C128.024 148.329 124.064 149.135 120.909 150.411C117.016 152.023 111.042 155.247 106.612 158.874C102.786 161.964 98.6245 166.598 100.235 170.829C102.853 177.545 117.687 181.105 126.346 180.232C136.548 179.157 147.489 170.493 146.885 159.747C146.684 155.784 145.006 152.829 141.918 150.881C139.233 149.068 135.609 148.329 131.85 148.329Z" fill="#FFFCF5" fill-opacity="0.2"/>
<path d="M121.647 173.381C116.613 173.381 112.384 171.434 111.445 168.344C110.304 164.583 115.069 159.747 122.05 157.531C126.346 156.187 130.44 156.389 133.125 158.068C134.669 159.075 135.676 160.553 135.877 162.232C136.481 167.001 131.716 171.837 125.205 173.046C123.997 173.314 122.788 173.381 121.647 173.381ZM127.487 157.329C125.876 157.329 124.064 157.598 122.251 158.202C115.606 160.352 111.042 164.784 112.049 168.21C113.123 171.702 118.962 173.583 125.07 172.441C131.246 171.299 135.743 166.799 135.206 162.366C135.004 160.822 134.199 159.546 132.789 158.672C131.38 157.732 129.5 157.329 127.487 157.329Z" fill="#FFFCF5" fill-opacity="0.2"/>
</svg>
