<svg width="670" height="792" viewBox="0 0 670 792" fill="none" xmlns="http://www.w3.org/2000/svg">
<path d="M494.896 303.687C542.925 387.422 568.424 473.516 570.846 545.005C573.268 616.52 552.601 673.276 508.48 698.583C464.36 723.889 404.934 713.071 344.428 674.872C283.943 636.686 222.505 571.205 174.476 487.47C126.448 403.734 100.949 317.64 98.5271 246.151C96.1048 174.637 116.772 117.88 160.892 92.5737C205.013 67.2674 264.439 78.0855 324.945 116.285C385.43 154.471 446.868 219.951 494.896 303.687Z" stroke="#FFFCF5" stroke-opacity="0.3"/>
<path d="M350.499 134.138C375.206 121.22 383.712 90.1376 377.231 64.3028C384.927 90.945 376.826 123.239 352.119 138.174C353.334 138.174 354.549 137.771 355.764 136.963C356.574 136.56 356.979 136.963 357.789 136.56C381.687 127.679 395.053 101.844 395.053 77.2202C395.863 97.8073 388.167 118.798 371.561 132.523C370.346 133.33 369.13 134.138 367.915 135.349C363.055 138.578 358.195 141 352.524 142.615C380.066 143.018 402.748 119.606 409.229 94.1743C406.799 107.092 400.318 118.798 391.407 128.486C380.876 139.385 366.7 146.248 351.714 147.055C378.446 154.321 405.989 137.367 418.95 114.358C414.494 122.028 409.229 129.294 402.748 135.349C388.572 148.67 368.725 155.532 349.689 151.092C359.005 155.936 369.535 158.358 380.066 157.55C396.673 155.936 411.254 147.459 423 136.156C404.773 156.743 372.371 167.642 346.854 154.321C366.7 173.697 399.103 172.486 421.38 158.358C419.76 159.165 418.545 159.972 416.924 161.183C403.558 168.853 388.572 172.486 373.181 170.468C361.84 168.853 351.714 164.413 343.208 157.147C350.094 168.046 360.22 176.119 372.776 179.752C374.396 180.156 375.611 180.56 377.231 180.963C386.952 183.385 396.673 183.385 406.799 181.367C408.419 180.963 410.039 180.56 412.064 180.156C412.874 180.156 413.684 179.752 414.494 179.349C388.572 189.037 355.359 182.578 339.158 158.761C347.259 185 376.016 199.936 402.343 197.917C391.812 199.532 381.281 197.514 371.156 193.881C363.055 191.459 355.764 187.018 349.284 180.963C342.803 174.908 337.538 167.642 334.703 159.165C335.513 185 356.574 205.183 380.876 212.046C382.497 212.45 384.522 212.45 386.142 213.257C379.256 212.046 372.371 209.624 365.89 206.394C365.08 205.991 364.27 205.991 363.46 205.587C353.334 200.339 345.233 193.073 338.753 183.385C333.892 175.716 331.462 167.642 330.247 158.761C328.627 166.835 329.032 175.312 331.057 183.385C335.513 197.917 344.423 209.624 357.384 218.505C359.005 219.312 360.22 220.119 361.84 221.33C363.46 222.138 365.08 222.945 366.7 223.752C341.183 212.853 321.336 185.404 326.197 157.147C313.641 181.771 324.577 212.046 344.828 229C339.158 224.56 334.703 219.716 330.247 213.661C329.437 212.046 328.627 210.835 327.412 209.22C317.286 192.67 314.451 172.083 322.551 154.725C304.325 175.312 307.16 208.009 322.957 229C305.54 207.202 301.895 173.697 319.716 151.092C297.034 166.431 291.364 198.725 301.49 223.349C292.984 204.376 293.389 181.771 303.515 163.202C307.16 156.743 312.021 151.495 317.691 147.055C314.451 148.266 311.616 149.881 308.78 151.495C304.325 153.917 301.085 157.147 297.439 160.78C284.883 174.908 280.023 194.284 282.048 212.45C277.593 185.404 290.149 153.917 316.881 143.018C303.11 143.826 290.959 151.092 282.048 161.183C281.238 162.394 280.428 163.606 279.213 164.817C271.517 174.505 267.872 185.404 265.847 197.11C267.062 185 271.517 174.101 278.403 163.202C287.719 149.477 301.49 140.596 317.286 138.578C303.11 135.349 288.934 140.596 276.783 149.073C275.568 150.284 274.352 151.092 273.137 151.899C264.632 159.569 258.556 168.45 254.101 178.541C254.911 176.927 255.316 174.908 256.126 173.294C263.011 159.569 272.732 147.862 286.503 140.596C296.629 135.349 307.565 133.33 318.501 134.138C304.325 128.083 288.529 128.89 274.757 135.349C263.822 140.596 254.911 148.266 247.215 157.55C254.506 147.459 263.416 139.385 274.757 133.734C276.378 133.33 277.593 132.523 279.213 131.716C292.579 126.468 307.565 125.257 320.931 130.505C308.375 120.413 291.769 117.991 275.568 121.22C269.087 122.835 263.416 124.853 257.341 128.083C253.291 130.505 249.645 132.927 246 135.349C257.341 126.064 270.707 119.606 285.693 117.991C299.059 116.78 312.831 119.606 324.172 127.275C320.121 122.431 316.071 118.394 310.4 115.165C309.185 114.761 307.97 113.954 306.755 113.147C288.934 104.67 267.872 105.881 250.455 113.954C275.162 101.037 309.185 103.862 328.222 125.257C325.792 121.22 323.767 116.78 320.526 113.147C315.666 107.495 309.995 103.055 303.515 99.8257C289.744 92.9633 274.757 91.7523 259.771 93.7706C286.908 88.5229 319.311 97.8073 332.272 124.046C331.867 120.009 330.247 116.376 329.032 112.339C328.222 111.128 327.412 109.917 327.007 108.706C326.602 108.303 326.197 107.495 325.792 107.092C325.387 106.284 325.387 105.881 324.982 105.073C318.501 94.9817 309.59 88.1193 299.059 83.2752C290.959 80.0459 282.453 77.6239 273.947 76.8165C282.048 78.0275 290.149 78.8349 297.844 81.6605C299.465 82.4679 300.68 83.2752 302.3 83.6789C305.945 85.2936 309.59 87.3119 313.236 89.7339C314.451 90.945 315.666 91.7523 316.881 92.5596C319.311 94.578 321.741 96.5963 323.767 99.0183C324.577 100.229 325.387 101.44 326.602 102.651C331.462 109.11 335.108 116.376 336.728 124.046C337.943 109.917 333.082 95.3853 322.957 84.8899C322.551 84.4862 322.146 83.2752 321.741 82.8716C313.236 73.9908 303.11 67.9358 291.769 63.8991C299.465 66.7248 306.755 69.5505 313.641 74.3945C320.526 79.6422 326.197 84.4862 331.057 91.7523C337.943 102.248 341.588 113.147 341.183 125.257C350.094 99.0183 335.108 69.9541 312.426 55.8257C336.323 69.9541 353.739 99.422 344.828 127.275C355.359 111.936 355.764 91.7523 348.474 74.7982C347.664 73.1835 346.854 71.9725 346.449 70.3578C345.638 68.7431 345.233 67.1284 344.018 65.9174C342.803 64.7064 341.993 63.0917 341.183 61.4771C339.158 58.2477 336.728 56.2294 334.703 53C337.943 57.4404 341.588 61.0734 344.828 65.9174C347.664 70.3578 349.689 74.7982 351.714 79.6422C353.334 83.2752 353.739 87.3119 354.549 91.3486C356.169 97.8073 356.169 103.459 355.359 109.917C354.144 117.183 352.119 124.046 348.069 130.101C369.13 111.936 369.535 78.8349 356.574 55.8257C363.46 68.7431 367.915 83.2752 366.7 98.211C365.485 111.532 360.625 124.853 350.499 134.138Z" fill="white"/>
</svg>
