<svg width="500" height="500" viewBox="0 0 500 500" fill="none" xmlns="http://www.w3.org/2000/svg">
<path d="M342.128 157.276C385.433 200.581 414.256 250.141 425.862 295.243C437.471 340.357 431.842 380.928 406.385 406.385C380.928 431.842 340.357 437.471 295.243 425.862C250.141 414.256 200.581 385.433 157.276 342.128C113.971 298.823 85.149 249.264 73.5425 204.161C61.9334 159.048 67.5623 118.477 93.0195 93.0195C118.477 67.5623 159.048 61.9333 204.161 73.5425C249.264 85.1489 298.823 113.971 342.128 157.276Z" stroke="#FFFCF5" stroke-opacity="0.3" stroke-width="0.839278"/>
<path d="M86.8539 92.4266C97.4626 86.8486 101.115 73.4266 98.3322 62.2706C101.637 73.7752 98.1583 87.7202 87.5496 94.1697C88.0713 94.1697 88.5931 93.9954 89.1148 93.6468C89.4626 93.4725 89.6365 93.6468 89.9844 93.4725C100.245 89.6376 105.984 78.4816 105.984 67.8486C106.332 76.7385 103.028 85.8027 95.8974 91.7293C95.3757 92.078 94.8539 92.4266 94.3322 92.9495C92.2452 94.344 90.1583 95.3899 87.7235 96.0871C99.5496 96.2615 109.289 86.1514 112.071 75.1697C111.028 80.7477 108.245 85.8027 104.419 89.9862C99.8974 94.6926 93.8105 97.6559 87.3757 98.0046C98.8539 101.142 110.68 93.8211 116.245 83.8853C114.332 87.1972 112.071 90.3348 109.289 92.9495C103.202 98.7018 94.68 101.665 86.5061 99.7477C90.5061 101.839 95.0279 102.885 99.5496 102.537C106.68 101.839 112.941 98.1789 117.984 93.2981C110.158 102.188 96.2452 106.894 85.2887 101.142C93.8105 109.509 107.724 108.986 117.289 102.885C116.593 103.234 116.071 103.583 115.376 104.105C109.637 107.417 103.202 108.986 96.5931 108.115C91.7235 107.417 87.3757 105.5 83.7235 102.362C86.68 107.069 91.0279 110.555 96.4192 112.124C97.1148 112.298 97.6365 112.472 98.3322 112.647C102.506 113.693 106.68 113.693 111.028 112.821C111.724 112.647 112.419 112.472 113.289 112.298C113.637 112.298 113.984 112.124 114.332 111.95C103.202 116.133 88.9409 113.344 81.9844 103.06C85.4626 114.39 97.8105 120.839 109.115 119.968C104.593 120.665 100.071 119.794 95.7235 118.225C92.2452 117.179 89.1148 115.261 86.3322 112.647C83.5496 110.032 81.2887 106.894 80.0713 103.234C80.4192 114.39 89.4626 123.105 99.8974 126.069C100.593 126.243 101.463 126.243 102.158 126.592C99.2018 126.069 96.2452 125.023 93.4626 123.628C93.1148 123.454 92.767 123.454 92.4192 123.28C88.0713 121.014 84.5931 117.876 81.8105 113.693C79.7235 110.381 78.68 106.894 78.1583 103.06C77.4626 106.546 77.6365 110.206 78.5061 113.693C80.4192 119.968 84.2452 125.023 89.8105 128.858C90.5061 129.206 91.0279 129.555 91.7235 130.078C92.4192 130.427 93.1148 130.775 93.8105 131.124C82.8539 126.417 74.3322 114.564 76.4192 102.362C71.0279 112.995 75.7235 126.069 84.4192 133.39C81.9844 131.472 80.0713 129.381 78.1583 126.766C77.8105 126.069 77.4626 125.546 76.9409 124.849C72.5931 117.702 71.3757 108.812 74.8539 101.316C67.0279 110.206 68.2452 124.326 75.0279 133.39C67.5496 123.977 65.9844 109.509 73.6365 99.7477C63.8974 106.372 61.4626 120.316 65.8105 130.95C62.1583 122.757 62.3322 112.995 66.68 104.977C68.2452 102.188 70.3322 99.922 72.767 98.0046C71.3757 98.5275 70.1583 99.2248 68.9409 99.922C67.0279 100.968 65.6365 102.362 64.0713 103.931C58.68 110.032 56.5931 118.399 57.4626 126.243C55.5496 114.564 60.9409 100.968 72.4192 96.2615C66.5061 96.6101 61.2887 99.7477 57.4626 104.105C57.1148 104.628 56.767 105.151 56.2452 105.674C52.9409 109.858 51.3757 114.564 50.5061 119.619C51.0279 114.39 52.9409 109.683 55.8974 104.977C59.8974 99.0504 65.8105 95.2156 72.5931 94.344C66.5061 92.9495 60.4192 95.2156 55.2018 98.8761C54.68 99.3991 54.1583 99.7477 53.6365 100.096C49.9844 103.408 47.3757 107.243 45.4626 111.601C45.8105 110.904 45.9844 110.032 46.3322 109.335C49.2887 103.408 53.4626 98.3532 59.3757 95.2156C63.7235 92.9495 68.4192 92.078 73.1148 92.4266C67.0279 89.8119 60.2452 90.1605 54.3322 92.9495C49.6365 95.2156 45.8105 98.5275 42.5061 102.537C45.6365 98.1789 49.4626 94.6926 54.3322 92.2523C55.0279 92.078 55.5496 91.7293 56.2452 91.3807C61.9844 89.1147 68.4192 88.5917 74.1583 90.8578C68.767 86.5 61.6365 85.4541 54.68 86.8486C51.8974 87.5459 49.4626 88.4174 46.8539 89.8119C45.1148 90.8578 43.5496 91.9037 41.9844 92.9495C46.8539 88.9404 52.5931 86.1514 59.0279 85.4541C64.767 84.9312 70.68 86.1514 75.5496 89.4633C73.8105 87.3715 72.0713 85.6284 69.6365 84.2339C69.1148 84.0596 68.5931 83.711 68.0713 83.3624C60.4192 79.7018 51.3757 80.2248 43.8974 83.711C54.5061 78.133 69.1148 79.3532 77.2887 88.5917C76.2452 86.8486 75.3757 84.9312 73.9844 83.3624C71.8974 80.922 69.4626 79.0046 66.68 77.6101C60.767 74.6468 54.3322 74.1238 47.8974 74.9954C59.5496 72.7293 73.4626 76.7385 79.0279 88.0688C78.8539 86.3257 78.1583 84.7569 77.6365 83.0137C77.2887 82.4908 76.9409 81.9679 76.767 81.4449C76.5931 81.2706 76.4192 80.922 76.2452 80.7477C76.0713 80.3991 76.0713 80.2248 75.8974 79.8761C73.1148 75.5183 69.2887 72.555 64.767 70.4633C61.2887 69.0688 57.6365 68.0229 53.9844 67.6743C57.4626 68.1972 60.9409 68.5459 64.2452 69.766C64.9409 70.1147 65.4626 70.4633 66.1583 70.6376C67.7235 71.3348 69.2887 72.2064 70.8539 73.2523C71.3757 73.7752 71.8974 74.1238 72.4192 74.4725C73.4626 75.344 74.5061 76.2156 75.3757 77.2615C75.7235 77.7844 76.0713 78.3073 76.5931 78.8303C78.68 81.6192 80.2452 84.7569 80.9409 88.0688C81.4626 81.9679 79.3757 75.6926 75.0279 71.1605C74.8539 70.9862 74.68 70.4633 74.5061 70.289C70.8539 66.4541 66.5061 63.8394 61.6365 62.0963C64.9409 63.3165 68.0713 64.5367 71.0279 66.6284C73.9844 68.8945 76.4192 70.9862 78.5061 74.1238C81.4626 78.6559 83.0279 83.3624 82.8539 88.5917C86.68 77.2615 80.2452 64.711 70.5061 58.6101C80.767 64.711 88.2452 77.4358 84.4192 89.4633C88.9409 82.8394 89.1148 74.1238 85.9844 66.8027C85.6365 66.1055 85.2887 65.5826 85.1148 64.8853C84.767 64.1881 84.5931 63.4908 84.0713 62.9679C83.5496 62.4449 83.2018 61.7477 82.8539 61.0504C81.9844 59.6559 80.9409 58.7844 80.0713 57.3899C81.4626 59.3073 83.0279 60.8761 84.4192 62.9679C85.6365 64.8853 86.5061 66.8027 87.3757 68.8945C88.0713 70.4633 88.2452 72.2064 88.5931 73.9495C89.2887 76.7385 89.2887 79.1789 88.9409 81.9679C88.4192 85.1055 87.5496 88.0688 85.8105 90.6835C94.8539 82.8394 95.0279 68.5459 89.4626 58.6101C92.4192 64.1881 94.3322 70.4633 93.8105 76.9128C93.2887 82.6651 91.2018 88.4174 86.8539 92.4266Z" fill="white"/>
</svg>
