<svg width="39" height="33" viewBox="0 0 39 33" fill="none" xmlns="http://www.w3.org/2000/svg">
<path d="M32.1727 0C30.5793 0 29.1157 0.495042 27.9485 1.3341C26.7812 0.503432 25.3176 0 23.7242 0C22.1309 0 20.6672 0.495042 19.5 1.3341C18.3328 0.503432 16.8691 0 15.2758 0C13.6824 0 12.2188 0.495042 11.0515 1.3341C9.88432 0.503432 8.42066 0 6.82732 0C3.06627 0 0 2.77727 0 6.18383V26.8162C0 30.2227 3.06627 33 6.82732 33C8.42066 33 9.88432 32.505 11.0515 31.6659C12.2188 32.4966 13.6824 33 15.2758 33C16.8691 33 18.3328 32.505 19.5 31.6659C20.6672 32.4966 22.1309 33 23.7242 33C25.3176 33 26.7812 32.505 27.9485 31.6659C29.1157 32.4966 30.5793 33 32.1727 33C35.9337 33 39 30.2227 39 26.8162V6.19222C39 2.77727 35.9337 0 32.1727 0ZM6.82732 32.5889C3.31639 32.5889 0.463183 30.0046 0.463183 26.8246V6.19222C0.463183 3.0122 3.31639 0.427918 6.82732 0.427918C8.28171 0.427918 9.61568 0.872616 10.6903 1.61098C9.30998 2.74371 8.44846 4.37986 8.44846 6.19222V26.8246C8.44846 28.6369 9.31924 30.2731 10.6903 31.4058C9.61568 32.1442 8.28171 32.5889 6.82732 32.5889ZM13.2007 6.19222V26.8246C13.2007 28.5362 12.367 30.0801 11.0608 31.1373C9.74537 30.0801 8.9209 28.5446 8.9209 26.8246V6.19222C8.9209 4.48055 9.75463 2.93669 11.0608 1.87948C12.367 2.93669 13.2007 4.47216 13.2007 6.19222ZM15.2758 32.5889C13.8214 32.5889 12.4874 32.1442 11.4128 31.4058C12.7931 30.2731 13.6546 28.6369 13.6546 26.8246V6.19222C13.6546 4.37986 12.7838 2.74371 11.4128 1.61098C12.4874 0.864226 13.8214 0.427918 15.2758 0.427918C16.7302 0.427918 18.0641 0.872616 19.1387 1.61098C17.7584 2.74371 16.8969 4.37986 16.8969 6.19222V26.8246C16.8969 28.6369 17.7677 30.2731 19.1387 31.4058C18.0641 32.1442 16.7302 32.5889 15.2758 32.5889ZM21.6399 6.19222V26.8246C21.6399 28.5362 20.8062 30.0801 19.5 31.1373C18.1846 30.0801 17.3601 28.5446 17.3601 26.8246V6.19222C17.3601 4.48055 18.1938 2.93669 19.5 1.87948C20.8154 2.93669 21.6399 4.47216 21.6399 6.19222ZM23.7242 32.5889C22.2698 32.5889 20.9359 32.1442 19.8613 31.4058C21.2416 30.2731 22.1031 28.6369 22.1031 26.8246V6.19222C22.1031 4.37986 21.2323 2.74371 19.8613 1.61098C20.9359 0.864226 22.2698 0.427918 23.7242 0.427918C25.1786 0.427918 26.5126 0.872616 27.5872 1.61098C26.2069 2.74371 25.3454 4.37986 25.3454 6.19222V26.8246C25.3454 28.6369 26.2162 30.2731 27.5872 31.4058C26.5126 32.1442 25.1694 32.5889 23.7242 32.5889ZM30.0884 6.19222V26.8246C30.0884 28.5362 29.2546 30.0801 27.9485 31.1373C26.633 30.0717 25.7993 28.5362 25.7993 26.8162V6.19222C25.7993 4.48055 26.633 2.93669 27.9392 1.87948C29.2546 2.93669 30.0884 4.47216 30.0884 6.19222ZM38.5368 26.8162C38.5368 29.9962 35.6836 32.5805 32.1727 32.5805C30.7183 32.5805 29.3843 32.1358 28.3097 31.3974C29.69 30.2647 30.5515 28.6285 30.5515 26.8162V6.19222C30.5515 4.37986 29.6808 2.74371 28.3097 1.61098C29.3843 0.864226 30.7183 0.427918 32.1727 0.427918C35.6836 0.427918 38.5368 3.0122 38.5368 6.19222V26.8162Z" fill="white"/>
</svg>
