<svg width="33" height="33" viewBox="0 0 33 33" fill="none" xmlns="http://www.w3.org/2000/svg">
<path d="M32.8937 9.74011C32.8752 8.35451 32.6154 6.98268 32.1259 5.686C31.7014 4.59225 31.053 3.59893 30.2222 2.76951C29.3914 1.94009 28.3964 1.2928 27.3009 0.868999C26.0187 0.388501 24.6642 0.128687 23.295 0.100621C21.5321 0.0219538 20.9732 0 16.4982 0C12.0232 0 11.4496 1.22676e-07 9.69952 0.100621C8.33092 0.128894 6.97704 0.388704 5.69547 0.868999C4.59973 1.2925 3.6046 1.93969 2.77376 2.76915C1.94292 3.59861 1.29465 4.59208 0.870446 5.686C0.388184 6.96504 0.128502 8.31698 0.102621 9.68339C0.0238227 11.4452 0 12.0032 0 16.4707C0 20.9383 -1.36533e-08 21.5091 0.102621 23.2581C0.130109 24.6265 0.388494 25.9767 0.870446 27.2591C1.29537 28.3527 1.94411 29.3458 2.77523 30.1749C3.60635 31.004 4.60157 31.6509 5.6973 32.0743C6.97536 32.5741 8.32948 32.8525 9.70136 32.8976C11.4661 32.9762 12.025 33 16.5 33C20.975 33 21.5486 33 23.2986 32.8976C24.6678 32.8706 26.0224 32.6114 27.3045 32.131C28.3998 31.7067 29.3945 31.0593 30.2253 30.2299C31.056 29.4005 31.7046 28.4075 32.1296 27.314C32.6115 26.0334 32.8699 24.6832 32.8974 23.313C32.9762 21.553 33 20.995 33 16.5256C32.9963 12.058 32.9963 11.4909 32.8937 9.74011ZM16.4872 24.9192C11.8069 24.9192 8.01544 21.1341 8.01544 16.4616C8.01544 11.7891 11.8069 8.00394 16.4872 8.00394C18.734 8.00394 20.8888 8.89501 22.4776 10.4811C24.0664 12.0672 24.9589 14.2185 24.9589 16.4616C24.9589 18.7047 24.0664 20.8559 22.4776 22.442C20.8888 24.0282 18.734 24.9192 16.4872 24.9192ZM25.2961 9.66327C25.0366 9.66351 24.7796 9.61266 24.5398 9.51364C24.3001 9.41461 24.0822 9.26935 23.8987 9.08617C23.7152 8.90299 23.5697 8.68548 23.4705 8.4461C23.3713 8.20672 23.3204 7.95015 23.3206 7.6911C23.3206 7.43223 23.3717 7.1759 23.4709 6.93673C23.5702 6.69757 23.7156 6.48026 23.899 6.29721C24.0823 6.11416 24.3 5.96896 24.5396 5.8699C24.7791 5.77083 25.0359 5.71984 25.2952 5.71984C25.5545 5.71984 25.8112 5.77083 26.0508 5.8699C26.2904 5.96896 26.508 6.11416 26.6914 6.29721C26.8747 6.48026 27.0202 6.69757 27.1194 6.93673C27.2186 7.1759 27.2697 7.43223 27.2697 7.6911C27.2697 8.78146 26.3864 9.66327 25.2961 9.66327Z" fill="#010101"/>
<path d="M16.4816 21.9448C19.5208 21.9448 21.9846 19.4851 21.9846 16.4509C21.9846 13.4167 19.5208 10.957 16.4816 10.957C13.4423 10.957 10.9785 13.4167 10.9785 16.4509C10.9785 19.4851 13.4423 21.9448 16.4816 21.9448Z" fill="#010101"/>
</svg>
