<svg width="236" height="53" viewBox="0 0 236 53" fill="none" xmlns="http://www.w3.org/2000/svg">
<path d="M235.25 18C235.25 18.886 234.659 19.9046 233.154 21.0263C231.668 22.1343 229.429 23.2347 226.473 24.3009C220.569 26.43 211.984 28.3606 201.326 29.9865C180.019 33.2366 150.559 35.25 118 35.25C85.4409 35.25 55.9805 33.2366 34.6745 29.9865C24.0156 28.3606 15.431 26.43 9.52747 24.3009C6.57125 23.2347 4.33185 22.1343 2.84559 21.0263C1.34086 19.9046 0.75 18.886 0.75 18C0.75 17.114 1.34086 16.0954 2.84559 14.9737C4.33185 13.8657 6.57125 12.7653 9.52747 11.6991C15.431 9.57 24.0156 7.63943 34.6745 6.0135C55.9805 2.76343 85.4409 0.75 118 0.75C150.559 0.75 180.019 2.76343 201.326 6.0135C211.984 7.63943 220.569 9.57 226.473 11.6991C229.429 12.7653 231.668 13.8657 233.154 14.9737C234.659 16.0954 235.25 17.114 235.25 18Z" stroke="#FFFCF5" stroke-width="1.5"/>
<path d="M235.25 26.5C235.25 27.3419 234.671 28.3263 233.163 29.4196C231.676 30.4969 229.436 31.5672 226.479 32.604C220.574 34.6745 211.988 36.5516 201.329 38.1325C180.021 41.2925 150.56 43.25 118 43.25C85.4402 43.25 55.9787 41.2925 34.6714 38.1325C24.012 36.5516 15.4261 34.6745 9.52119 32.604C6.56407 31.5672 4.32395 30.4969 2.83747 29.4196C1.32895 28.3263 0.75 27.3419 0.75 26.5C0.75 25.6581 1.32895 24.6737 2.83747 23.5804C4.32395 22.5031 6.56407 21.4328 9.52119 20.396C15.4261 18.3255 24.012 16.4484 34.6714 14.8675C55.9787 11.7075 85.4402 9.75 118 9.75C150.56 9.75 180.021 11.7075 201.329 14.8675C211.988 16.4484 220.574 18.3255 226.479 20.396C229.436 21.4328 231.676 22.5031 233.163 23.5804C234.671 24.6737 235.25 25.6581 235.25 26.5Z" stroke="#FFFCF5" stroke-opacity="0.5" stroke-width="1.5"/>
<path d="M235.25 35C235.25 35.886 234.659 36.9046 233.154 38.0263C231.668 39.1343 229.429 40.2347 226.473 41.3009C220.569 43.43 211.984 45.3606 201.326 46.9865C180.019 50.2366 150.559 52.25 118 52.25C85.4409 52.25 55.9805 50.2366 34.6745 46.9865C24.0156 45.3606 15.431 43.43 9.52747 41.3009C6.57125 40.2347 4.33185 39.1343 2.84559 38.0263C1.34086 36.9046 0.75 35.886 0.75 35C0.75 34.114 1.34086 33.0954 2.84559 31.9737C4.33185 30.8657 6.57125 29.7653 9.52747 28.6991C15.431 26.57 24.0156 24.6394 34.6745 23.0135C55.9805 19.7634 85.4409 17.75 118 17.75C150.559 17.75 180.019 19.7634 201.326 23.0135C211.984 24.6394 220.569 26.57 226.473 28.6991C229.429 29.7653 231.668 30.8657 233.154 31.9737C234.659 33.0954 235.25 34.114 235.25 35Z" stroke="#FFFCF5" stroke-opacity="0.2" stroke-width="1.5"/>
</svg>
