<svg width="151" height="151" viewBox="0 0 151 151" fill="none" xmlns="http://www.w3.org/2000/svg">
<path d="M85.5543 127.315C86.1424 127.193 86.6775 127.228 87.1595 127.418C87.6415 127.608 88.0472 127.923 88.3764 128.364C88.7056 128.804 88.9348 129.337 89.0639 129.963C89.1953 130.6 89.1942 131.187 89.0605 131.722C88.9247 132.261 88.6741 132.712 88.3088 133.074C87.9413 133.439 87.4744 133.68 86.9081 133.797C86.467 133.888 86.0526 133.888 85.6649 133.798C85.2773 133.708 84.9402 133.539 84.6535 133.291C84.3669 133.044 84.1559 132.73 84.0206 132.349L84.9845 132.15C85.117 132.421 85.3325 132.64 85.6312 132.809C85.9278 132.98 86.2884 133.022 86.7132 132.935C87.0889 132.857 87.3982 132.691 87.6409 132.437C87.8815 132.186 88.0442 131.867 88.1292 131.48C88.2119 131.097 88.2045 130.668 88.1068 130.195C88.0068 129.71 87.8436 129.304 87.617 128.976C87.3877 128.648 87.1123 128.414 86.7909 128.273C86.4667 128.133 86.114 128.102 85.7328 128.181C85.4823 128.232 85.264 128.323 85.0777 128.452C84.8915 128.581 84.7444 128.742 84.6365 128.935C84.5286 129.127 84.4683 129.344 84.4556 129.585L83.4917 129.784C83.4698 129.402 83.5358 129.041 83.6897 128.7C83.8414 128.362 84.075 128.07 84.3903 127.823C84.7034 127.58 85.0914 127.41 85.5543 127.315Z" fill="#FFFCF5"/>
<path d="M75.0651 129.832L72.8656 134.918L71.9315 134.925L74.6554 128.5L75.4561 128.495L78.2199 134.881L77.3025 134.887L75.0651 129.832ZM77.6194 134.885L77.5745 128.48L78.5586 128.473L78.6035 134.878L77.6194 134.885ZM72.5371 128.515L72.582 134.92L71.5979 134.927L71.5529 128.522L72.5371 128.515Z" fill="#FFFCF5"/>
<path d="M64.6556 127.329C65.2236 127.438 65.696 127.669 66.0728 128.021C66.447 128.373 66.7076 128.815 66.8548 129.347C66.9992 129.879 67.0091 130.47 66.8846 131.119C66.759 131.775 66.5306 132.324 66.1994 132.767C65.8655 133.21 65.4597 133.526 64.9819 133.714C64.5014 133.902 63.9772 133.942 63.4093 133.833C62.8414 133.724 62.3704 133.494 61.9962 133.142C61.6194 132.79 61.359 132.346 61.2151 131.812C61.0685 131.277 61.0579 130.682 61.1835 130.027C61.308 129.377 61.537 128.832 61.8704 128.392C62.2011 127.952 62.6067 127.637 63.0871 127.449C63.5649 127.26 64.0877 127.221 64.6556 127.329ZM64.4893 128.198C64.0578 128.115 63.6817 128.158 63.3608 128.325C63.0399 128.493 62.7781 128.744 62.5752 129.079C62.3724 129.414 62.2307 129.792 62.1501 130.212C62.0695 130.633 62.0613 131.037 62.1255 131.426C62.1897 131.815 62.3396 132.148 62.5752 132.425C62.8108 132.702 63.1443 132.882 63.5757 132.965C64.0071 133.048 64.3835 133.004 64.7049 132.833C65.0263 132.663 65.2887 132.409 65.4921 132.071C65.6955 131.734 65.8374 131.355 65.918 130.934C65.9986 130.514 66.0065 130.11 65.9418 129.724C65.8771 129.338 65.7267 129.008 65.4905 128.733C65.2544 128.459 64.9207 128.28 64.4893 128.198Z" fill="#FFFCF5"/>
<path d="M54.961 130.456L54.6158 131.306L49.7938 129.348L50.139 128.498L52.0863 129.288L54.1508 124.204L55.0626 124.574L52.9982 129.659L54.961 130.456Z" fill="#FFFCF5"/>
<path d="M49.0983 118.974L44.2568 126.331L43.4625 125.808L44.0219 124.958L43.9243 124.894C43.8028 124.947 43.6413 125.01 43.4397 125.084C43.2343 125.159 42.9931 125.186 42.7162 125.167C42.4354 125.149 42.1208 125.025 41.7725 124.796C41.322 124.499 40.999 124.125 40.8035 123.674C40.608 123.222 40.5499 122.726 40.6292 122.186C40.7085 121.646 40.9331 121.095 41.3029 120.533C41.6758 119.966 42.0954 119.538 42.5617 119.25C43.0265 118.963 43.5045 118.818 43.9956 118.815C44.4852 118.815 44.953 118.961 45.3989 119.255C45.7426 119.481 45.9803 119.719 46.1121 119.969C46.2424 120.221 46.3151 120.457 46.3303 120.676C46.344 120.898 46.3489 121.078 46.3451 121.215L46.4148 121.261L48.2762 118.433L49.0983 118.974ZM45.2092 123.124C45.4751 122.719 45.6505 122.324 45.7353 121.937C45.8186 121.553 45.8037 121.198 45.6908 120.874C45.5763 120.553 45.3541 120.284 45.0244 120.067C44.6807 119.84 44.3343 119.742 43.9851 119.772C43.6322 119.803 43.296 119.934 42.9766 120.167C42.6534 120.4 42.3665 120.707 42.1158 121.088C41.8683 121.464 41.7032 121.841 41.6206 122.22C41.5342 122.599 41.5491 122.953 41.6651 123.282C41.7774 123.612 42.0077 123.892 42.356 124.121C42.6904 124.341 43.0272 124.442 43.3664 124.422C43.704 124.404 44.0302 124.283 44.345 124.057C44.6582 123.834 44.9463 123.523 45.2092 123.124Z" fill="#FFFCF5"/>
<path d="M37.8531 113.038C38.2926 113.471 38.576 113.942 38.7034 114.45C38.8269 114.959 38.802 115.473 38.6287 115.993C38.4515 116.513 38.1326 117.007 37.6719 117.474C37.2113 117.941 36.7201 118.269 36.1985 118.458C35.673 118.646 35.1582 118.689 34.6543 118.586C34.1464 118.484 33.6865 118.229 33.2748 117.823C33.0372 117.589 32.8417 117.318 32.6882 117.011C32.5347 116.703 32.4507 116.367 32.4364 116.001C32.42 115.638 32.4989 115.255 32.673 114.852C32.8471 114.45 33.144 114.036 33.5637 113.611L33.8565 113.314L37.3722 116.78L36.7749 117.386L33.9718 114.622C33.7181 114.879 33.5431 115.16 33.447 115.463C33.3488 115.765 33.3362 116.067 33.4091 116.369C33.48 116.669 33.6421 116.944 33.8955 117.194C34.1746 117.469 34.4845 117.638 34.825 117.701C35.1616 117.763 35.4927 117.738 35.8182 117.626C36.1437 117.513 36.4305 117.332 36.6784 117.08L37.0766 116.676C37.4162 116.332 37.6447 115.981 37.7622 115.625C37.8756 115.268 37.887 114.922 37.7962 114.586C37.7034 114.253 37.5155 113.947 37.2324 113.667C37.0483 113.486 36.8566 113.348 36.6574 113.253C36.4543 113.158 36.2465 113.109 36.0342 113.107C35.8199 113.106 35.605 113.156 35.3895 113.256L34.8999 112.398C35.1975 112.239 35.5164 112.155 35.8564 112.147C36.1945 112.14 36.5351 112.211 36.8782 112.358C37.2193 112.507 37.5443 112.733 37.8531 113.038Z" fill="#FFFCF5"/>
<path d="M27.8195 110.018L27.0603 110.533L24.1387 106.227L24.8979 105.711L26.0778 107.451L30.6193 104.37L31.1718 105.184L26.6303 108.265L27.8195 110.018Z" fill="#FFFCF5"/>
<path d="M23.0782 99.115L22.3641 97.4248C22.072 96.7333 22.0241 96.1304 22.2202 95.616C22.4163 95.1015 22.7833 94.7307 23.3211 94.5035C23.6745 94.3542 24.0305 94.3004 24.3892 94.342C24.7452 94.3848 25.0761 94.5287 25.3819 94.7737C25.685 95.0199 25.934 95.3734 26.1287 95.8344L27.1738 98.3083L21.2734 100.801L20.8904 99.8944L25.9457 97.7587L25.2836 96.1914C25.1321 95.8329 24.913 95.5784 24.6261 95.428C24.3392 95.2776 24.0473 95.2651 23.7502 95.3906C23.4377 95.5226 23.2316 95.7455 23.1318 96.0593C23.032 96.3731 23.0578 96.7092 23.2093 97.0678L23.9233 98.758L23.0782 99.115Z" fill="#FFFCF5"/>
<path d="M22.0936 78.2873L15.6884 78.3322L15.67 75.7134C15.6652 75.024 15.817 74.4752 16.1255 74.0672C16.4341 73.6591 16.8441 73.4533 17.3556 73.4497C17.7448 73.447 18.0472 73.5602 18.2629 73.7895C18.4758 74.0187 18.6211 74.3138 18.6987 74.6747C18.7304 74.4381 18.8122 74.2082 18.944 73.9849C19.0759 73.7588 19.2581 73.5712 19.4906 73.4222C19.7203 73.2733 20.0033 73.1976 20.3397 73.1953C20.6677 73.193 20.9616 73.2743 21.2213 73.4393C21.481 73.6043 21.687 73.8419 21.8394 74.1522C21.9917 74.4625 22.0693 74.8345 22.0724 75.2682L22.0936 78.2873ZM21.1863 77.3595L21.1716 75.2745C21.1693 74.9354 21.0868 74.6704 20.9242 74.4798C20.7616 74.2891 20.5413 74.1947 20.2633 74.1966C19.9325 74.199 19.6732 74.2967 19.4855 74.4898C19.2951 74.683 19.201 74.9492 19.2034 75.2883L19.218 77.3733L21.1863 77.3595ZM18.3673 77.3793L18.3555 75.6946C18.3537 75.4305 18.3159 75.2042 18.2423 75.0157C18.1659 74.8271 18.0593 74.6833 17.9224 74.5842C17.7826 74.4823 17.6183 74.432 17.4292 74.4334C17.1596 74.4353 16.9491 74.5493 16.7978 74.7756C16.6437 75.0018 16.568 75.3124 16.5708 75.7071L16.5826 77.3918L18.3673 77.3793Z" fill="#FFFCF5"/>
<path d="M21.3849 66.3694L17.1002 62.4063L17.3136 61.2923L23.6045 62.4978L23.4192 63.4644L18.5537 62.532L22.8416 66.4788L22.625 67.6091L16.3342 66.4036L16.5194 65.437L21.3849 66.3694Z" fill="#FFFCF5"/>
<path d="M26.5492 59.0008L23.9991 57.9654L24.1999 57.4708C24.1228 57.2985 24.0287 57.1388 23.9174 56.9916C23.8061 56.8444 23.6631 56.6978 23.4884 56.5518C23.3121 56.4022 23.0878 56.2452 22.8155 56.0806C22.5407 55.915 22.2033 55.73 21.8032 55.5256L19.5356 54.3708L21.0667 50.5997L26.1514 52.6643L26.5217 51.7524L29.0718 52.7878L28.7015 53.6997L27.0015 53.0094L25.2194 57.3987L26.9194 58.089L26.5492 59.0008ZM24.6203 56.4353L25.7812 53.5761L21.5465 51.8567L20.7308 53.8659L22.1671 54.6292C22.7618 54.9456 23.2716 55.2456 23.6965 55.5292C24.1215 55.8127 24.4294 56.1148 24.6203 56.4353Z" fill="#FFFCF5"/>
<path d="M30.9968 46.3132C30.6575 46.8288 30.2511 47.1986 29.7774 47.4227C29.303 47.643 28.7938 47.7189 28.2498 47.6504C27.7049 47.5781 27.1585 47.3616 26.6104 47.0009C26.0624 46.6403 25.6451 46.2225 25.3585 45.7477C25.0711 45.269 24.9286 44.7725 24.9309 44.2582C24.9324 43.7401 25.0921 43.2394 25.41 42.7564C25.5934 42.4777 25.8209 42.2331 26.0926 42.0225C26.3643 41.8119 26.6781 41.6639 27.0338 41.5785C27.3872 41.4916 27.7781 41.4943 28.2066 41.5866C28.6351 41.6789 29.099 41.8893 29.5983 42.2179L29.9467 42.4471L27.2324 46.5716L26.5218 46.1039L28.6858 42.8155C28.3839 42.6168 28.0748 42.4999 27.7585 42.4648C27.4437 42.4274 27.1451 42.4739 26.8629 42.6043C26.5823 42.7324 26.3441 42.9451 26.1485 43.2424C25.933 43.5698 25.8279 43.9067 25.833 44.2528C25.8374 44.5952 25.9264 44.915 26.1001 45.2124C26.2738 45.5098 26.5082 45.7555 26.8031 45.9496L27.2769 46.2614C27.6809 46.5273 28.0693 46.683 28.442 46.7286C28.8139 46.7704 29.1556 46.714 29.4669 46.5594C29.776 46.4034 30.0397 46.1593 30.2583 45.8272C30.4004 45.6112 30.4986 45.3963 30.5528 45.1824C30.6063 44.9646 30.6135 44.7514 30.5745 44.5426C30.5331 44.3324 30.4425 44.1313 30.3025 43.9393L31.0482 43.2918C31.2625 43.5527 31.4069 43.8491 31.4814 44.181C31.5535 44.5113 31.551 44.8591 31.4737 45.2243C31.3942 45.5879 31.2352 45.9509 30.9968 46.3132Z" fill="#FFFCF5"/>
<path d="M37.7669 38.0382C37.3609 38.45 36.9067 38.7146 36.4042 38.8322C35.9037 38.9477 35.3914 38.9189 34.8673 38.7456C34.3451 38.5704 33.8485 38.2505 33.3773 37.7859C32.9023 37.3174 32.5725 36.8224 32.3879 36.3008C32.2054 35.7771 32.1684 35.2643 32.2769 34.7623C32.3874 34.2582 32.6456 33.8003 33.0516 33.3886C33.4576 32.9768 33.9109 32.7132 34.4114 32.5976C34.9138 32.4801 35.4271 32.5099 35.9513 32.6871C36.4774 32.8623 36.978 33.1841 37.4531 33.6526C37.9242 34.1172 38.25 34.6103 38.4306 35.1319C38.6132 35.6516 38.6492 36.1635 38.5387 36.6675C38.4302 37.1696 38.1729 37.6265 37.7669 38.0382ZM37.1374 37.4175C37.4458 37.1047 37.6194 36.7683 37.6582 36.4083C37.6969 36.0483 37.6335 35.6909 37.4678 35.3363C37.3022 34.9816 37.0669 34.654 36.7621 34.3534C36.4572 34.0528 36.1253 33.8211 35.7664 33.6585C35.4075 33.4959 35.0473 33.4355 34.6859 33.4774C34.3245 33.5192 33.9895 33.6965 33.6811 34.0093C33.3727 34.3221 33.2001 34.6595 33.1633 35.0214C33.1266 35.3834 33.192 35.7427 33.3596 36.0993C33.5273 36.4559 33.7635 36.7845 34.0683 37.0852C34.3732 37.3858 34.7041 37.6164 35.061 37.7771C35.418 37.9377 35.7762 37.9962 36.1356 37.9523C36.4951 37.9085 36.829 37.7303 37.1374 37.4175Z" fill="#FFFCF5"/>
<path d="M64.5941 23.6795C64.006 23.8007 63.4709 23.7663 62.9889 23.5762C62.5069 23.386 62.1013 23.0709 61.7721 22.6307C61.4428 22.1904 61.2137 21.6572 61.0845 21.031C60.9531 20.3938 60.9543 19.8074 61.0879 19.2718C61.2237 18.7328 61.4743 18.2823 61.8396 17.9203C62.2071 17.555 62.674 17.3139 63.2404 17.1971C63.6815 17.1062 64.0958 17.1059 64.4835 17.1963C64.8711 17.2866 65.2083 17.4556 65.4949 17.703C65.7815 17.9505 65.9925 18.2646 66.1278 18.6455L65.164 18.8442C65.0315 18.5735 64.8159 18.354 64.5172 18.1857C64.2207 18.014 63.86 17.972 63.4353 18.0596C63.0595 18.1371 62.7503 18.3031 62.5075 18.5575C62.2669 18.8086 62.1042 19.1275 62.0193 19.514C61.9365 19.8973 61.944 20.3258 62.0416 20.7995C62.1416 21.2842 62.3049 21.6905 62.5314 22.0185C62.7608 22.3459 63.0361 22.58 63.3576 22.721C63.6817 22.8613 64.0344 22.8922 64.4156 22.8136C64.6661 22.762 64.8845 22.6715 65.0707 22.5423C65.2569 22.413 65.404 22.2521 65.5119 22.0596C65.6198 21.867 65.6801 21.6502 65.6929 21.4091L66.6567 21.2104C66.6786 21.5919 66.6126 21.9532 66.4587 22.2944C66.307 22.6322 66.0735 22.9245 65.7582 23.1712C65.445 23.4146 65.057 23.584 64.5941 23.6795Z" fill="#FFFCF5"/>
<path d="M75.0833 21.1616L77.2829 16.0752L78.217 16.0687L75.493 22.4932L74.6924 22.4989L71.9286 16.1128L72.846 16.1063L75.0833 21.1616ZM72.5291 16.1086L72.574 22.5137L71.5899 22.5206L71.5449 16.1155L72.5291 16.1086ZM77.6114 22.4784L77.5664 16.0732L78.5506 16.0663L78.5955 22.4715L77.6114 22.4784Z" fill="#FFFCF5"/>
<path d="M85.4889 23.6653C84.921 23.5565 84.4486 23.3258 84.0717 22.9734C83.6976 22.6214 83.4369 22.1794 83.2898 21.6474C83.1454 21.1158 83.1354 20.5251 83.2599 19.8753C83.3855 19.22 83.6139 18.6708 83.9451 18.2275C84.279 17.7848 84.6849 17.4692 85.1626 17.2805C85.6431 17.0923 86.1673 17.0526 86.7352 17.1615C87.3031 17.2703 87.7742 17.5007 88.1483 17.8526C88.5252 18.2051 88.7856 18.6485 88.9294 19.1827C89.0761 19.7175 89.0866 20.3126 88.961 20.9678C88.8365 21.6177 88.6075 22.1626 88.2741 22.6025C87.9434 23.043 87.5379 23.3574 87.0574 23.5455C86.5796 23.7342 86.0568 23.7741 85.4889 23.6653ZM85.6553 22.797C86.0867 22.8797 86.4628 22.8371 86.7837 22.6694C87.1046 22.5016 87.3665 22.2503 87.5693 21.9155C87.7722 21.5807 87.9139 21.2031 87.9945 20.7826C88.075 20.3621 88.0832 19.9575 88.019 19.5687C87.9548 19.1799 87.8049 18.8469 87.5693 18.5697C87.3337 18.2924 87.0002 18.1124 86.5688 18.0297C86.1374 17.9471 85.761 17.991 85.4396 18.1615C85.1182 18.332 84.8558 18.5861 84.6524 18.9236C84.4491 19.2611 84.3071 19.6401 84.2265 20.0605C84.1459 20.481 84.138 20.8843 84.2027 21.2703C84.2675 21.6564 84.4179 21.9867 84.654 22.2612C84.8901 22.5358 85.2239 22.7144 85.6553 22.797Z" fill="#FFFCF5"/>
<path d="M95.1914 20.5381L95.5365 19.688L100.359 21.6459L100.013 22.4959L98.066 21.7053L96.0016 26.79L95.0897 26.4198L97.1542 21.335L95.1914 20.5381Z" fill="#FFFCF5"/>
<path d="M101.05 32.0207L105.892 24.6635L106.686 25.1862L106.127 26.0362L106.224 26.1004C106.346 26.0472 106.507 25.9838 106.709 25.9101C106.914 25.8356 107.155 25.808 107.432 25.8271C107.713 25.8455 108.028 25.9693 108.376 26.1986C108.826 26.495 109.149 26.869 109.345 27.3205C109.54 27.7719 109.598 28.2678 109.519 28.808C109.44 29.3482 109.215 29.8993 108.846 30.4613C108.473 31.028 108.053 31.4557 107.587 31.7446C107.122 32.0311 106.644 32.1758 106.153 32.1788C105.663 32.1794 105.195 32.033 104.75 31.7395C104.406 31.5133 104.168 31.2753 104.036 31.0255C103.906 30.7734 103.833 30.5375 103.818 30.3178C103.804 30.0958 103.8 29.9162 103.803 29.7789L103.734 29.7331L101.872 32.5617L101.05 32.0207ZM104.939 27.8707C104.673 28.2748 104.498 28.6702 104.413 29.057C104.33 29.4415 104.345 29.7958 104.458 30.1197C104.572 30.4413 104.794 30.7107 105.124 30.9277C105.468 31.1539 105.814 31.252 106.163 31.2222C106.516 31.1916 106.852 31.06 107.172 30.8276C107.495 30.5943 107.782 30.2872 108.033 29.9064C108.28 29.5302 108.445 29.1529 108.528 28.7746C108.614 28.3955 108.599 28.0412 108.483 27.7119C108.371 27.3818 108.141 27.1021 107.792 26.8729C107.458 26.6528 107.121 26.5526 106.782 26.5724C106.444 26.5898 106.118 26.7113 105.803 26.9368C105.49 27.1599 105.202 27.4713 104.939 27.8707Z" fill="#FFFCF5"/>
<path d="M112.299 37.9561C111.86 37.5228 111.576 37.052 111.449 36.5437C111.325 36.0354 111.35 35.5212 111.524 35.001C111.701 34.4807 112.02 33.987 112.48 33.5198C112.941 33.0527 113.432 32.7249 113.954 32.5364C114.479 32.3479 114.994 32.305 115.498 32.4076C116.006 32.5102 116.466 32.7645 116.878 33.1705C117.115 33.4048 117.311 33.6757 117.464 33.9832C117.618 34.2908 117.702 34.6274 117.716 34.9929C117.732 35.3565 117.653 35.7394 117.479 36.1417C117.305 36.5439 117.008 36.9579 116.589 37.3835L116.296 37.6804L112.78 34.2137L113.377 33.6079L116.181 36.3719C116.434 36.1146 116.609 35.8342 116.705 35.5308C116.804 35.2293 116.816 34.9275 116.743 34.6252C116.672 34.325 116.51 34.0499 116.257 33.8C115.978 33.5248 115.668 33.356 115.327 33.2935C114.991 33.231 114.66 33.2559 114.334 33.3683C114.009 33.4806 113.722 33.6625 113.474 33.9139L113.076 34.3177C112.736 34.6622 112.508 35.0127 112.39 35.3694C112.277 35.726 112.265 36.0721 112.356 36.4076C112.449 36.7411 112.637 37.0475 112.92 37.3266C113.104 37.5082 113.296 37.6464 113.495 37.7413C113.698 37.8362 113.906 37.8849 114.118 37.8873C114.332 37.8878 114.547 37.8381 114.763 37.7383L115.252 38.5959C114.955 38.7553 114.636 38.8391 114.296 38.8474C113.958 38.8537 113.617 38.7834 113.274 38.6364C112.933 38.4874 112.608 38.2606 112.299 37.9561Z" fill="#FFFCF5"/>
<path d="M122.333 40.9757L123.092 40.4607L126.014 44.7676L125.254 45.2826L124.075 43.5433L119.533 46.6241L118.981 45.8097L123.522 42.7289L122.333 40.9757Z" fill="#FFFCF5"/>
<path d="M127.07 51.8792L127.784 53.5694C128.076 54.2609 128.124 54.8638 127.928 55.3782C127.732 55.8927 127.365 56.2635 126.827 56.4907C126.474 56.64 126.118 56.6938 125.759 56.6522C125.403 56.6094 125.072 56.4655 124.767 56.2205C124.463 55.9743 124.214 55.6208 124.02 55.1598L122.975 52.6859L128.875 50.1933L129.258 51.0998L124.203 53.2355L124.865 54.8028C125.016 55.1613 125.235 55.4158 125.522 55.5662C125.809 55.7166 126.101 55.7291 126.398 55.6036C126.711 55.4716 126.917 55.2487 127.017 54.9349C127.116 54.6211 127.091 54.285 126.939 53.9264L126.225 52.2362L127.07 51.8792Z" fill="#FFFCF5"/>
<path d="M128.055 72.7067L134.46 72.6618L134.478 75.2806C134.483 75.9701 134.331 76.5188 134.023 76.9269C133.714 77.3349 133.304 77.5408 132.793 77.5443C132.404 77.5471 132.101 77.4338 131.886 77.2046C131.673 76.9753 131.527 76.6803 131.45 76.3194C131.418 76.5559 131.336 76.7858 131.204 77.0092C131.073 77.2353 130.89 77.4228 130.658 77.5718C130.428 77.7208 130.145 77.7964 129.809 77.7988C129.481 77.8011 129.187 77.7198 128.927 77.5548C128.667 77.3898 128.461 77.1521 128.309 76.8418C128.157 76.5315 128.079 76.1595 128.076 75.7258L128.055 72.7067ZM128.962 73.6345L128.977 75.7195C128.979 76.0587 129.062 76.3236 129.224 76.5143C129.387 76.705 129.607 76.7994 129.885 76.7974C130.216 76.7951 130.475 76.6974 130.663 76.5042C130.853 76.311 130.947 76.0449 130.945 75.7057L130.93 73.6207L128.962 73.6345ZM131.781 73.6147L131.793 75.2994C131.795 75.5635 131.832 75.7899 131.906 75.9784C131.982 76.1669 132.089 76.3107 132.226 76.4098C132.366 76.5117 132.53 76.562 132.719 76.5607C132.989 76.5588 133.199 76.4447 133.351 76.2185C133.505 75.9922 133.58 75.6817 133.578 75.2869L133.566 73.6022L131.781 73.6147Z" fill="#FFFCF5"/>
<path d="M128.763 84.625L133.048 88.5882L132.835 89.7022L126.544 88.4966L126.729 87.5301L131.595 88.4625L127.307 84.5157L127.523 83.3853L133.814 84.5909L133.629 85.5574L128.763 84.625Z" fill="#FFFCF5"/>
<path d="M123.595 91.9934L126.145 93.0288L125.945 93.5234C126.022 93.6957 126.116 93.8554 126.227 94.0026C126.338 94.1498 126.481 94.2964 126.656 94.4424C126.832 94.592 127.057 94.749 127.329 94.9136C127.604 95.0792 127.941 95.2642 128.341 95.4687L130.609 96.6234L129.078 100.394L123.993 98.3299L123.623 99.2418L121.073 98.2064L121.443 97.2945L123.143 97.9848L124.925 93.5955L123.225 92.9052L123.595 91.9934ZM125.524 94.5589L124.363 97.4181L128.598 99.1375L129.414 97.1283L127.977 96.3651C127.383 96.0486 126.873 95.7486 126.448 95.465C126.023 95.1815 125.715 94.8794 125.524 94.5589Z" fill="#FFFCF5"/>
<path d="M119.159 104.681C119.499 104.166 119.905 103.796 120.379 103.572C120.853 103.351 121.362 103.276 121.906 103.344C122.451 103.416 122.998 103.633 123.546 103.994C124.094 104.354 124.511 104.772 124.798 105.247C125.085 105.725 125.228 106.222 125.225 106.736C125.224 107.254 125.064 107.755 124.746 108.238C124.563 108.517 124.335 108.761 124.064 108.972C123.792 109.183 123.478 109.331 123.122 109.416C122.769 109.503 122.378 109.5 121.95 109.408C121.521 109.316 121.057 109.105 120.558 108.777L120.21 108.547L122.924 104.423L123.634 104.891L121.47 108.179C121.772 108.378 122.081 108.495 122.398 108.53C122.713 108.567 123.011 108.521 123.293 108.39C123.574 108.262 123.812 108.049 124.008 107.752C124.223 107.425 124.328 107.088 124.323 106.742C124.319 106.399 124.23 106.079 124.056 105.782C123.882 105.485 123.648 105.239 123.353 105.045L122.879 104.733C122.475 104.467 122.087 104.311 121.714 104.266C121.342 104.224 121.001 104.28 120.689 104.435C120.38 104.591 120.117 104.835 119.898 105.167C119.756 105.383 119.658 105.598 119.603 105.812C119.55 106.03 119.543 106.243 119.582 106.452C119.623 106.662 119.714 106.863 119.854 107.055L119.108 107.703C118.894 107.442 118.749 107.145 118.675 106.813C118.603 106.483 118.605 106.135 118.683 105.77C118.762 105.407 118.921 105.044 119.159 104.681Z" fill="#FFFCF5"/>
<path d="M112.385 112.956C112.791 112.544 113.246 112.28 113.748 112.162C114.249 112.047 114.761 112.076 115.285 112.249C115.807 112.424 116.304 112.744 116.775 113.209C117.25 113.677 117.58 114.172 117.764 114.694C117.947 115.217 117.984 115.73 117.875 116.232C117.765 116.736 117.507 117.194 117.101 117.606C116.695 118.018 116.241 118.281 115.741 118.397C115.239 118.514 114.725 118.485 114.201 118.307C113.675 118.132 113.174 117.81 112.699 117.342C112.228 116.877 111.902 116.384 111.722 115.863C111.539 115.343 111.503 114.831 111.614 114.327C111.722 113.825 111.979 113.368 112.385 112.956ZM113.015 113.577C112.707 113.89 112.533 114.226 112.494 114.586C112.455 114.946 112.519 115.304 112.685 115.658C112.85 116.013 113.085 116.34 113.39 116.641C113.695 116.942 114.027 117.173 114.386 117.336C114.745 117.499 115.105 117.559 115.466 117.517C115.828 117.475 116.163 117.298 116.471 116.985C116.78 116.672 116.952 116.335 116.989 115.973C117.026 115.611 116.96 115.252 116.793 114.895C116.625 114.539 116.389 114.21 116.084 113.909C115.779 113.609 115.448 113.378 115.091 113.217C114.734 113.057 114.376 112.998 114.017 113.042C113.657 113.086 113.323 113.264 113.015 113.577Z" fill="#FFFCF5"/>
<path d="M49.1365 26.7872C49.8279 25.3815 50.2757 23.8681 50.4605 22.3116C49.7507 23.7092 49.2814 25.216 49.0792 26.7699C47.6735 26.0785 46.1601 25.6307 44.6035 25.4459C46.0011 26.1556 47.508 26.625 49.0619 26.8272C48.3705 28.2329 47.9226 29.7463 47.7379 31.3028C48.4476 29.9053 48.9169 28.3984 49.1191 26.8445C50.5249 27.5359 52.0382 27.9838 53.5948 28.1686C52.1972 27.4588 50.6903 26.9895 49.1365 26.7872Z" fill="#FFFCF5"/>
<path d="M102.801 124.232C103.492 122.826 103.94 121.312 104.125 119.756C103.415 121.153 102.945 122.66 102.743 124.214C101.338 123.523 99.8242 123.075 98.2676 122.89C99.6652 123.6 101.172 124.069 102.726 124.272C102.035 125.677 101.587 127.191 101.402 128.747C102.112 127.35 102.581 125.843 102.783 124.289C104.189 124.98 105.702 125.428 107.259 125.613C105.861 124.903 104.354 124.434 102.801 124.232Z" fill="#FFFCF5"/>
</svg>
