<svg width="315" height="296" viewBox="0 0 315 296" fill="none" xmlns="http://www.w3.org/2000/svg">
<mask id="path-1-inside-1_2398_6385" fill="white">
<path d="M79.5 169.591L94.341 0L87.6683 170.051L123.563 3.68176L95.7215 171.662L152.209 11.0453L103.545 174.193L179.705 21.9755L111.023 177.645L205.706 36.1273L117.925 182.017L229.636 53.5006L124.253 187.31L251.149 73.7503L129.89 193.293L270.017 96.5312L134.722 199.966L285.778 121.498L138.634 207.099L298.433 148.306L141.74 214.808L307.522 176.379L143.696 222.747L313.044 205.488L144.731 230.916L315 234.942L144.731 239.084L313.044 264.512L143.696 247.253L307.522 293.506L141.74 255.192L298.433 321.694L138.634 262.786L285.778 348.387L134.722 270.034L270.017 373.354L129.89 276.707L251.149 396.135L124.253 282.69L229.636 416.384L117.925 287.868L205.706 433.758L111.023 292.24L179.705 448.024L103.545 295.807L152.209 458.955L95.7215 298.338L123.563 466.318L87.6683 299.834L94.341 470L79.5 300.409L64.659 470L71.3317 299.834L35.4372 466.318L63.2784 298.338L6.79066 458.955L55.4553 295.807L-20.7054 448.024L47.9773 292.24L-46.7059 433.758L41.0745 287.868L-70.6356 416.384L34.7469 282.69L-92.1492 396.135L29.1097 276.707L-111.017 373.354L24.2777 270.034L-126.778 348.387L20.3661 262.786L-139.433 321.694L17.2599 255.192L-148.522 293.506L15.3041 247.253L-154.044 264.512L14.2687 239.084L-156 234.942L14.2687 230.916L-154.044 205.488L15.3041 222.747L-148.522 176.379L17.2599 214.808L-139.433 148.306L20.3661 207.099L-126.778 121.498L24.2777 199.966L-111.017 96.5312L29.1097 193.293L-92.1492 73.7503L34.7469 187.31L-70.6356 53.5006L41.0745 182.017L-46.7059 36.1273L47.9773 177.645L-20.7054 21.9755L55.4553 174.193L6.79066 11.0453L63.2784 171.662L35.4372 3.68176L71.3317 170.051L64.659 0L79.5 169.591Z"/>
</mask>
<path d="M79.5 169.591L94.341 0L87.6683 170.051L123.563 3.68176L95.7215 171.662L152.209 11.0453L103.545 174.193L179.705 21.9755L111.023 177.645L205.706 36.1273L117.925 182.017L229.636 53.5006L124.253 187.31L251.149 73.7503L129.89 193.293L270.017 96.5312L134.722 199.966L285.778 121.498L138.634 207.099L298.433 148.306L141.74 214.808L307.522 176.379L143.696 222.747L313.044 205.488L144.731 230.916L315 234.942L144.731 239.084L313.044 264.512L143.696 247.253L307.522 293.506L141.74 255.192L298.433 321.694L138.634 262.786L285.778 348.387L134.722 270.034L270.017 373.354L129.89 276.707L251.149 396.135L124.253 282.69L229.636 416.384L117.925 287.868L205.706 433.758L111.023 292.24L179.705 448.024L103.545 295.807L152.209 458.955L95.7215 298.338L123.563 466.318L87.6683 299.834L94.341 470L79.5 300.409L64.659 470L71.3317 299.834L35.4372 466.318L63.2784 298.338L6.79066 458.955L55.4553 295.807L-20.7054 448.024L47.9773 292.24L-46.7059 433.758L41.0745 287.868L-70.6356 416.384L34.7469 282.69L-92.1492 396.135L29.1097 276.707L-111.017 373.354L24.2777 270.034L-126.778 348.387L20.3661 262.786L-139.433 321.694L17.2599 255.192L-148.522 293.506L15.3041 247.253L-154.044 264.512L14.2687 239.084L-156 234.942L14.2687 230.916L-154.044 205.488L15.3041 222.747L-148.522 176.379L17.2599 214.808L-139.433 148.306L20.3661 207.099L-126.778 121.498L24.2777 199.966L-111.017 96.5312L29.1097 193.293L-92.1492 73.7503L34.7469 187.31L-70.6356 53.5006L41.0745 182.017L-46.7059 36.1273L47.9773 177.645L-20.7054 21.9755L55.4553 174.193L6.79066 11.0453L63.2784 171.662L35.4372 3.68176L71.3317 170.051L64.659 0L79.5 169.591Z" fill="#D6FF00" stroke="#D6FF00" stroke-width="2" mask="url(#path-1-inside-1_2398_6385)"/>
</svg>
