<svg width="111" height="40" viewBox="0 0 111 40" fill="none" xmlns="http://www.w3.org/2000/svg">
<path d="M26.4205 39.25C33.5681 39.25 40.0107 37.056 44.6499 33.5441C49.2887 30.0326 52.091 25.2368 52.091 20C52.091 14.7632 49.2887 9.96736 44.6499 6.45585C40.0107 2.94399 33.5681 0.749999 26.4205 0.749999C19.2729 0.749999 12.8303 2.944 8.19105 6.45585C3.55227 9.96736 0.750001 14.7632 0.750001 20C0.750001 25.2368 3.55227 30.0326 8.19105 33.5442C12.8303 37.056 19.2729 39.25 26.4205 39.25Z" stroke="white" stroke-opacity="0.2" stroke-width="1.5"/>
<path d="M68.456 39.25C76.5033 39.25 83.3207 30.8149 83.3207 20C83.3207 9.18509 76.5033 0.749999 68.456 0.749999C60.4087 0.75 53.5913 9.18509 53.5913 20C53.5913 30.8149 60.4087 39.25 68.456 39.25Z" stroke="white" stroke-opacity="0.5" stroke-width="1.5"/>
<path d="M93.0374 39.25C94.0338 39.25 95.038 38.8027 96.0132 37.8828C96.9924 36.959 97.9083 35.5873 98.6938 33.8353C100.264 30.3331 101.255 25.4422 101.255 20C101.255 14.5578 100.264 9.6669 98.6938 6.1647C97.9083 4.41275 96.9924 3.04102 96.0132 2.11725C95.038 1.19725 94.0338 0.75 93.0374 0.75C92.0411 0.75 91.0369 1.19725 90.0617 2.11725C89.0825 3.04102 88.1666 4.41275 87.3811 6.1647C85.8109 9.6669 84.8203 14.5578 84.8203 20C84.8203 25.4422 85.8109 30.3331 87.3811 33.8353C88.1666 35.5873 89.0825 36.959 90.0617 37.8828C91.0369 38.8027 92.0411 39.25 93.0374 39.25Z" stroke="white" stroke-opacity="0.8" stroke-width="1.5"/>
<path d="M106.503 39.25C106.572 39.25 106.703 39.2222 106.904 39.039C107.11 38.8518 107.344 38.5402 107.591 38.0762C108.084 37.1495 108.551 35.7591 108.951 33.9776C109.75 30.4267 110.25 25.4845 110.25 20C110.25 14.5155 109.75 9.57332 108.951 6.02242C108.551 4.24091 108.084 2.85052 107.591 1.92379C107.344 1.45978 107.11 1.14821 106.904 0.961053C106.703 0.777761 106.572 0.75 106.503 0.75C106.434 0.75 106.302 0.777761 106.101 0.961052C105.895 1.14821 105.661 1.45978 105.414 1.92379C104.921 2.85052 104.455 4.24091 104.054 6.02242C103.255 9.57332 102.755 14.5155 102.755 20C102.755 25.4845 103.255 30.4267 104.054 33.9776C104.455 35.7591 104.921 37.1495 105.414 38.0762C105.661 38.5402 105.895 38.8518 106.101 39.039C106.302 39.2222 106.434 39.25 106.503 39.25Z" stroke="white" stroke-width="1.5"/>
</svg>
