<svg width="50" height="50" viewBox="0 0 50 50" fill="none" xmlns="http://www.w3.org/2000/svg">
<path d="M24.9842 0C11.2004 0 0 10.0225 0 22.3254V49.6481C0 49.8452 0.173283 50 0.393825 50H7.84499H14.9023H21.3611H28.6232H35.0819H42.155H49.6062C49.8267 50 50 49.8452 50 49.6481V22.3254C49.9685 10.0084 38.7681 0 24.9842 0ZM21.7391 49.2962V22.2832C21.7391 20.6926 23.1884 19.3834 24.9842 19.3834C26.7643 19.3834 28.2294 20.6785 28.2294 22.2832V49.2962H21.7391ZM29.017 49.2962V22.2832C29.017 20.2984 27.2054 18.6796 24.9842 18.6796C22.7631 18.6796 20.9515 20.2984 20.9515 22.2832V49.2962H15.2804V22.3536C15.2804 17.5816 19.6282 13.6965 24.9685 13.6965C30.3088 13.6965 34.6566 17.5816 34.6566 22.3536V49.2962H29.017ZM35.46 49.2962V22.3536C35.46 17.1875 30.7656 12.9927 24.9842 12.9927C19.2029 12.9927 14.5085 17.1875 14.5085 22.3536V49.2962H8.22306V22.5084C8.22306 14.2455 15.7372 7.53097 24.9842 7.53097C34.2313 7.53097 41.7454 14.2455 41.7454 22.5084V49.2962H35.46ZM49.1808 49.2962H42.5173V22.5084C42.5173 13.8654 34.6408 6.82714 24.9685 6.82714C15.2962 6.82714 7.41966 13.8654 7.41966 22.5084V49.2962H0.78765V22.3254C0.78765 10.4026 11.6415 0.703829 24.9842 0.703829C38.327 0.703829 49.1808 10.4026 49.1808 22.3254V49.2962Z" fill="white"/>
</svg>
