<svg width="37" height="38" viewBox="0 0 37 38" fill="none" xmlns="http://www.w3.org/2000/svg">
<path d="M27.4946 27.8244C27.445 22.8359 23.3758 18.8208 18.3828 18.8388C23.3713 18.8523 27.436 14.8417 27.4946 9.8532L27.4946 9.72702L27.3684 9.72702C22.3799 9.77659 18.3648 13.8458 18.3828 18.8388C18.3963 13.8503 14.3857 9.7856 9.39721 9.72702L9.27103 9.72702L9.27103 9.8532C9.3206 14.8417 13.3898 18.8568 18.3828 18.8388C13.3943 18.8253 9.32961 22.8359 9.27103 27.8244L9.27103 27.9506L9.3972 27.9506C14.3857 27.901 18.4008 23.8318 18.3828 18.8388C18.3693 23.8273 22.3799 27.892 27.3684 27.9506L27.4946 27.9506L27.4946 27.8244Z" fill="#FFFCF5"/>
</svg>
