<svg width="50" height="72" viewBox="0 0 50 72" fill="none" xmlns="http://www.w3.org/2000/svg">
<path d="M50 56.3532C50 52.1508 48.9827 46.8318 47.2565 41.4818H49.6147C49.8305 41.4818 50 41.3112 50 41.0941C50 33.9918 47.0869 23.6795 42.7404 15.4297C40.3668 10.9171 37.6387 7.14883 34.8335 4.54361C31.6122 1.53521 28.2984 0 25 0C21.7016 0 18.3878 1.51971 15.1665 4.54361C12.3767 7.14883 9.64858 10.9171 7.25955 15.4297C2.92848 23.6795 0 33.9918 0 41.0941C0 41.3112 0.169544 41.4818 0.385327 41.4818H2.74353C1.01726 46.8318 0 52.1663 0 56.3532C0 56.5703 0.169544 56.7409 0.385327 56.7409H2.74353C1.01726 62.0909 0 67.4254 0 71.6123C0 71.8294 0.169544 72 0.385327 72H49.5993C49.815 72 49.9846 71.8294 49.9846 71.6123C49.9846 67.4099 48.9673 62.0909 47.2411 56.7409H49.5993C49.815 56.7409 50 56.5703 50 56.3532ZM0.786066 40.7064C0.986436 26.967 11.8681 0.775361 25 0.775361C38.1319 0.775361 49.0136 26.967 49.2139 40.7064H46.979C45.8231 37.2638 44.3742 33.8367 42.7404 30.7043C40.3668 26.1917 37.6387 22.4234 34.8335 19.8182C31.6122 16.8098 28.2984 15.2746 25 15.2746C21.7016 15.2746 18.3878 16.7943 15.1665 19.8182C12.3767 22.4234 9.64858 26.1917 7.25955 30.7043C5.61036 33.8367 4.17694 37.2638 3.02096 40.7064H0.786066ZM39.18 41.4818C42.0469 45.7308 44.4513 50.8792 46.1776 55.9655H3.82244C5.5487 50.8637 7.95314 45.7308 10.82 41.4818H39.18ZM11.344 40.7064C15.2435 35.1704 19.9599 31.3091 25 31.3091C30.0401 31.3091 34.7565 35.1704 38.656 40.7064H11.344ZM34.8335 35.0773C31.6122 32.0689 28.2984 30.5337 25 30.5337C21.7016 30.5337 18.3878 32.0534 15.1665 35.0773C13.5481 36.5815 11.9451 38.4889 10.4192 40.7064H3.82244C7.98397 28.4868 15.9525 16.05 25 16.05C34.0475 16.05 42.0314 28.4868 46.1776 40.7064H39.5808C38.0549 38.4889 36.4673 36.5815 34.8335 35.0773ZM0.786066 55.9655C0.847719 51.8871 1.84957 46.7232 3.56042 41.4818H9.89519C8.98582 42.8775 8.09186 44.3661 7.25955 45.9634C5.61036 49.0958 4.17694 52.5229 3.02096 55.9655H0.786066ZM49.2139 71.2402H0.786066C0.847719 67.1618 1.84957 61.9978 3.56042 56.7564H46.4396C48.1658 61.9978 49.1523 67.1618 49.2139 71.2402ZM46.9945 55.9655C45.8385 52.5229 44.3896 49.0958 42.7559 45.9634C41.9236 44.3661 41.0296 42.8619 40.1202 41.4818H46.455C48.1658 46.7387 49.1677 51.9027 49.2293 55.9655H46.9945Z" fill="white"/>
</svg>
