<svg width="322" height="161" viewBox="0 0 322 161" fill="none" xmlns="http://www.w3.org/2000/svg">
<path d="M80.5397 134.054L96.3536 149.872C111.134 164.656 135.134 164.656 149.914 149.872C157.305 142.48 161.04 132.782 161.04 123.085C161.04 132.782 164.775 142.48 172.165 149.872C179.556 157.264 189.25 161 198.945 161C208.64 161 218.335 157.264 225.726 149.872L241.54 134.054L257.354 149.872C272.134 164.656 296.134 164.656 310.914 149.872C325.695 135.087 325.695 111.082 310.914 96.298L295.1 80.4801L310.914 64.6623C325.695 49.8778 325.695 25.8729 310.914 11.0884C296.134 -3.69612 272.134 -3.69612 257.354 11.0884L241.54 26.9062L225.726 11.0884C210.945 -3.69612 186.946 -3.69612 172.165 11.0884C164.775 18.4806 161.04 28.178 161.04 37.8753C161.04 47.5727 164.775 57.2701 172.165 64.6623L187.979 80.4801L172.086 96.3774C164.695 103.77 160.96 113.467 160.96 123.164C160.96 113.467 157.225 103.77 149.835 96.3774L134.021 80.5596L149.835 64.7418C157.225 57.3495 160.96 47.6522 160.96 37.9548C160.96 28.2575 157.225 18.5601 149.835 11.1679C135.054 -3.61664 111.055 -3.61664 96.2742 11.1679L80.4603 26.9857L64.6463 11.1679C49.8655 -3.61664 25.8665 -3.61664 11.0856 11.1679C-3.69521 25.9524 -3.69521 49.9573 11.0856 64.7418L26.8996 80.5596L11.0856 96.3774C-3.69521 111.162 -3.69521 135.167 11.0856 149.951C18.4761 157.344 28.171 161.079 37.866 161.079C47.561 161.079 57.2559 157.344 64.6463 149.951L80.5397 134.054Z" fill="white"/>
<path d="M294.941 241.441L310.755 225.623C325.536 210.838 325.536 186.833 310.755 172.049C295.975 157.264 271.976 157.264 257.195 172.049L241.381 187.867L225.567 172.128C218.176 164.736 208.481 161 198.787 161C189.092 161 179.397 164.736 172.006 172.128C164.616 179.521 160.881 189.218 160.881 198.915C160.881 208.613 164.616 218.31 172.006 225.702L187.82 241.52L172.086 257.338C164.695 264.73 160.96 274.427 160.96 284.125C160.96 274.427 157.225 264.73 149.835 257.338L134.021 241.52L149.835 225.702C157.225 218.31 160.96 208.613 160.96 198.915C160.96 189.218 157.225 179.521 149.835 172.128C135.054 157.344 111.055 157.344 96.2742 172.128L80.4603 187.946L64.6463 172.128C57.2559 164.736 47.561 161 37.866 161C28.171 161 18.4761 164.736 11.0856 172.128C-3.69521 186.913 -3.69521 210.918 11.0856 225.702L26.8996 241.52L11.0856 257.338C-3.69521 272.122 -3.69521 296.127 11.0856 310.912C25.8665 325.696 49.8655 325.696 64.6463 310.912L80.4603 295.094L96.2742 310.912C111.055 325.696 135.054 325.696 149.835 310.912C157.225 303.52 160.96 293.822 160.96 284.125C160.96 293.822 164.695 303.52 172.086 310.912C186.866 325.696 210.865 325.696 225.646 310.912L241.46 295.094L257.274 310.912C272.055 325.696 296.054 325.696 310.835 310.912C325.616 296.127 325.616 272.122 310.835 257.338L294.941 241.441Z" fill="white"/>
</svg>
