<svg width="322" height="236" viewBox="0 0 322 236" fill="none" xmlns="http://www.w3.org/2000/svg">
<path d="M322 60.5707C288.547 60.5707 261.429 33.4527 261.429 0H241.5H221.571C221.571 33.4527 194.453 60.5707 161 60.5707C127.547 60.5707 100.429 33.4527 100.429 0H80.5H60.5707C60.5707 33.4527 33.4527 60.5707 0 60.5707V80.5V100.429C33.4527 100.429 60.5707 127.547 60.5707 161C60.5707 194.453 33.4527 221.571 0 221.571V241.5V261.429C33.4527 261.429 60.5707 288.547 60.5707 322H80.5H100.429C100.429 288.547 127.547 261.429 161 261.429C194.453 261.429 221.571 288.547 221.571 322H241.5H261.429C261.429 288.547 288.547 261.429 322 261.429V241.5V221.571C288.547 221.571 261.429 194.453 261.429 161C261.429 127.547 288.547 100.429 322 100.429V80.5V60.5707ZM221.571 161C221.571 194.453 194.453 221.571 161 221.571C127.547 221.571 100.429 194.453 100.429 161C100.429 127.547 127.547 100.429 161 100.429C194.453 100.429 221.571 127.547 221.571 161Z" fill="white"/>
</svg>
