<svg width="497" height="1374" viewBox="0 0 497 1374" fill="none" xmlns="http://www.w3.org/2000/svg">
<path d="M248.5 0.999989C578.5 165.64 578.5 211.373 248.5 138.2C-81.4999 65.0266 -81.4999 110.76 248.5 275.4C578.5 440.04 578.5 485.773 248.5 412.6C-81.4999 339.427 -81.4999 385.16 248.5 549.8C578.5 714.44 578.5 760.173 248.5 687C-81.4999 613.827 -81.4999 659.56 248.5 824.2C578.5 988.84 578.5 1034.57 248.5 961.4C-81.5 888.227 -81.5 933.96 248.5 1098.6C578.5 1263.24 578.5 1308.97 248.5 1235.8C-81.5 1162.63 -81.5 1208.36 248.5 1373" stroke="#D6FF00" stroke-opacity="0.3" stroke-width="2"/>
</svg>
