<svg width="97" height="96" viewBox="0 0 97 96" fill="none" xmlns="http://www.w3.org/2000/svg">
<path d="M0.554688 47.5012C0.554688 47.335 0.554688 47.1687 0.554688 47.0025C0.554688 43.2499 1.0772 39.5923 2.05098 36.1484C7.34737 15.3904 26.2054 0 48.5547 0C75.0129 0 96.5547 21.5418 96.5547 48C96.5547 74.4582 75.0366 96 48.5547 96C22.809 96 1.74222 75.622 0.602188 50.1613C0.578438 49.9713 0.578438 49.805 0.578438 49.615C0.554688 49.3063 0.554688 48.9975 0.554688 48.6888C0.554688 48.6175 0.554688 48.5463 0.554688 48.475C0.554688 48.3325 0.554688 48.19 0.554688 48.0475C0.554688 47.8337 0.554688 47.6675 0.554688 47.5012ZM1.76597 48.1663C1.78972 49.0925 1.86097 50.0188 1.95597 50.9451C3.02475 57.1202 8.43989 61.8466 14.9238 61.8466C22.1915 61.8466 28.0816 55.9327 28.0816 48.6888C28.0816 41.4448 22.1677 35.5309 14.9238 35.5309C7.96488 35.5309 2.24098 40.9698 1.78972 47.81C1.76597 47.905 1.76597 48.0237 1.76597 48.1663ZM14.9001 34.3196C22.809 34.3196 29.2454 40.7561 29.2454 48.665C29.2454 56.574 22.809 63.0104 14.9001 63.0104C10.4112 63.0104 6.39734 60.9441 3.76102 57.6903C7.15736 64.9579 14.5438 69.9931 23.094 69.9931C34.8506 69.9931 44.4221 60.4216 44.4221 48.665C44.4221 36.9085 34.8506 27.337 23.094 27.337C14.5676 27.337 7.18111 32.3721 3.76102 39.6398C6.39734 36.3859 10.4112 34.3196 14.9001 34.3196ZM23.094 26.1494C35.5156 26.1494 45.6096 36.2434 45.6096 48.665C45.6096 61.0866 35.5156 71.1806 23.094 71.1806C16.2063 71.1806 10.0074 68.0693 5.87482 63.1529C11.0762 71.9881 20.719 77.9495 31.6917 77.9495C48.1984 77.9495 61.6413 64.5067 61.6413 48C61.6413 31.4933 48.1984 18.0505 31.6917 18.0505C19.0802 18.0505 8.24989 25.8882 3.85602 36.956C7.82237 30.472 14.9476 26.1494 23.094 26.1494ZM31.6917 16.8629C48.8634 16.8629 62.8288 30.8283 62.8288 48C62.8288 65.1717 48.8634 79.1371 31.6917 79.1371C22.3815 79.1371 14.045 75.0282 8.32114 68.5443C15.2801 78.8758 27.0841 85.6922 40.4557 85.6922C61.8075 85.6922 79.1692 68.3305 79.1692 46.9787C79.1692 25.6269 61.8075 8.26521 40.4557 8.26521C23.9015 8.26521 9.72243 18.7155 4.21228 33.3696C9.46117 23.5606 19.8164 16.8629 31.6917 16.8629ZM48.5547 94.8125C74.3716 94.8125 95.3672 73.8169 95.3672 48C95.3672 22.1831 74.3716 1.18753 48.5547 1.18753C33.2118 1.18753 19.5789 8.59772 11.0525 20.0218C18.3439 12.0653 28.8417 7.07768 40.4557 7.07768C62.4725 7.07768 80.3568 24.9856 80.3568 46.9787C80.3568 68.9718 62.4488 86.8798 40.4557 86.8798C25.2316 86.8798 11.9787 78.3058 5.25732 65.7655C12.2637 82.7947 29.0317 94.8125 48.5547 94.8125Z" fill="white" fill-opacity="0.2"/>
</svg>
