<svg width="217" height="218" viewBox="0 0 217 218" fill="none" xmlns="http://www.w3.org/2000/svg">
<path d="M107.699 198.773C108.722 198.773 109.603 199.014 110.341 199.497C111.08 199.98 111.648 200.645 112.046 201.493C112.444 202.34 112.643 203.309 112.643 204.398C112.643 205.506 112.439 206.483 112.032 207.331C111.62 208.183 111.047 208.848 110.313 209.327C109.574 209.81 108.713 210.051 107.728 210.051C106.961 210.051 106.269 209.909 105.654 209.625C105.038 209.341 104.534 208.943 104.141 208.432C103.748 207.92 103.504 207.324 103.41 206.642H105.086C105.214 207.139 105.498 207.58 105.938 207.963C106.374 208.351 106.961 208.545 107.699 208.545C108.353 208.545 108.926 208.375 109.418 208.034C109.906 207.698 110.287 207.222 110.562 206.607C110.831 205.996 110.966 205.278 110.966 204.455C110.966 203.612 110.834 202.878 110.569 202.253C110.299 201.628 109.92 201.143 109.432 200.797C108.94 200.451 108.362 200.278 107.699 200.278C107.264 200.278 106.868 200.354 106.513 200.506C106.158 200.657 105.858 200.875 105.611 201.159C105.365 201.443 105.19 201.784 105.086 202.182H103.41C103.504 201.538 103.739 200.958 104.113 200.442C104.482 199.93 104.972 199.523 105.583 199.22C106.189 198.922 106.894 198.773 107.699 198.773Z" fill="#FFFCF5"/>
<path d="M89.5844 199.401L84.1659 207.129L82.6056 206.819L89.3591 197.039L90.6965 197.305L93.11 208.908L91.5775 208.603L89.5844 199.401ZM92.1069 208.709L94.2352 198.009L95.8791 198.336L93.7508 209.036L92.1069 208.709ZM85.8205 196.336L83.6922 207.035L82.0483 206.708L84.1766 196.009L85.8205 196.336Z" fill="#FFFCF5"/>
<path d="M73.723 191.94C74.6329 192.316 75.3415 192.864 75.8489 193.581C76.3519 194.297 76.6347 195.124 76.6971 196.062C76.7551 196.998 76.5685 197.987 76.1373 199.028C75.7024 200.078 75.1325 200.916 74.4276 201.541C73.7183 202.165 72.9328 202.552 72.071 202.702C71.2048 202.851 70.3168 202.736 69.4069 202.359C68.497 201.983 67.7906 201.436 67.2875 200.721C66.7801 200.003 66.4983 199.174 66.4421 198.233C66.3815 197.291 66.5686 196.295 67.0035 195.245C67.4347 194.204 68.0041 193.373 68.7116 192.754C69.4147 192.133 70.1993 191.748 71.0655 191.6C71.9273 191.449 72.8131 191.563 73.723 191.94ZM73.1468 193.331C72.4556 193.044 71.8136 192.986 71.2206 193.155C70.6276 193.325 70.1044 193.654 69.6509 194.143C69.1973 194.631 68.8311 195.212 68.552 195.886C68.273 196.56 68.1201 197.232 68.0935 197.903C68.0669 198.573 68.2023 199.18 68.5 199.724C68.7976 200.267 69.292 200.682 69.9831 200.968C70.6743 201.255 71.3172 201.311 71.912 201.137C72.5068 200.963 73.0318 200.63 73.4872 200.137C73.9425 199.644 74.3097 199.06 74.5887 198.387C74.8678 197.713 75.0197 197.043 75.0445 196.377C75.0694 195.711 74.9321 195.108 74.6326 194.569C74.3332 194.03 73.8379 193.617 73.1468 193.331Z" fill="#FFFCF5"/>
<path d="M56.1527 193.789L55.2846 195.088L47.9148 190.164L48.7829 188.864L51.7592 190.853L56.9519 183.082L58.3455 184.013L53.1528 191.784L56.1527 193.789Z" fill="#FFFCF5"/>
<path d="M50.1991 172.618L39.5925 183.224L38.4475 182.079L39.6729 180.854L39.5323 180.713C39.3113 180.76 39.02 180.81 38.6584 180.864C38.2901 180.917 37.8783 180.881 37.423 180.753C36.961 180.626 36.4788 180.311 35.9766 179.809C35.3271 179.16 34.917 178.425 34.7462 177.605C34.5755 176.784 34.6491 175.937 34.9672 175.063C35.2853 174.19 35.8494 173.347 36.6596 172.537C37.4766 171.72 38.3236 171.151 39.2008 170.83C40.0746 170.512 40.9217 170.435 41.742 170.599C42.5589 170.766 43.2888 171.171 43.9316 171.814C44.4271 172.31 44.7418 172.788 44.8757 173.25C45.0063 173.716 45.0465 174.134 44.9963 174.506C44.9427 174.881 44.8891 175.182 44.8356 175.41L44.936 175.51L49.0139 171.432L50.1991 172.618ZM42.2843 178.202C42.8669 177.62 43.2955 177.02 43.57 176.404C43.8412 175.792 43.9383 175.196 43.8613 174.616C43.7809 174.041 43.503 173.515 43.0276 173.039C42.5321 172.544 41.988 172.261 41.3954 172.191C40.7961 172.12 40.1901 172.224 39.5775 172.502C38.9581 172.78 38.3738 173.193 37.8247 173.743C37.2824 174.285 36.8773 174.857 36.6094 175.46C36.3349 176.063 36.2378 176.659 36.3181 177.248C36.3918 177.837 36.6797 178.383 37.1819 178.885C37.664 179.367 38.1914 179.65 38.7639 179.734C39.333 179.821 39.919 179.731 40.5216 179.463C41.1209 179.198 41.7085 178.778 42.2843 178.202Z" fill="#FFFCF5"/>
<path d="M33.2761 158.636C33.8601 159.51 34.171 160.393 34.2087 161.284C34.2398 162.175 34.0214 163.024 33.5534 163.832C33.0789 164.639 32.377 165.353 31.4479 165.973C30.5188 166.594 29.5869 166.972 28.652 167.107C27.7106 167.241 26.8372 167.135 26.0318 166.791C25.2199 166.445 24.5403 165.862 23.9932 165.043C23.6775 164.571 23.4445 164.052 23.2942 163.486C23.1439 162.92 23.1197 162.33 23.2215 161.715C23.3193 161.103 23.5826 160.492 24.0114 159.881C24.4402 159.269 25.0778 158.681 25.9242 158.116L26.5148 157.721L31.1866 164.713L29.9819 165.518L26.2571 159.943C25.7453 160.285 25.357 160.693 25.0922 161.166C24.8248 161.635 24.6999 162.134 24.7176 162.663C24.7325 163.188 24.9084 163.703 25.2451 164.207C25.616 164.762 26.0747 165.15 26.6213 165.372C27.1612 165.592 27.722 165.664 28.3037 165.589C28.8854 165.513 29.4262 165.308 29.9262 164.974L30.7293 164.438C31.4143 163.98 31.9161 163.474 32.2346 162.919C32.5466 162.363 32.6846 161.79 32.6485 161.199C32.6085 160.611 32.4004 160.035 32.0242 159.472C31.7796 159.106 31.5074 158.81 31.2078 158.583C30.9016 158.355 30.5718 158.202 30.2184 158.125C29.8612 158.05 29.4856 158.059 29.0917 158.152L28.57 156.553C29.1214 156.389 29.6821 156.359 30.2522 156.462C30.8183 156.568 31.3622 156.803 31.8839 157.166C32.4017 157.532 32.8658 158.022 33.2761 158.636Z" fill="#FFFCF5"/>
<path d="M17.8004 150.652L16.3569 151.25L12.9649 143.061L14.4085 142.463L15.7783 145.77L24.4134 142.193L25.0549 143.742L16.4197 147.318L17.8004 150.652Z" fill="#FFFCF5"/>
<path d="M13.4772 130.421L12.8676 127.356C12.6182 126.102 12.7455 125.08 13.2497 124.289C13.7538 123.499 14.4934 123.006 15.4687 122.812C16.1095 122.685 16.7219 122.718 17.3057 122.91C17.885 123.104 18.3874 123.458 18.8131 123.972C19.2342 124.487 19.5278 125.162 19.6941 125.998L20.5864 130.484L9.88692 132.612L9.55992 130.968L18.7269 129.145L18.1616 126.303C18.0323 125.653 17.7542 125.153 17.3274 124.803C16.9007 124.454 16.4179 124.333 15.8792 124.44C15.3127 124.552 14.8922 124.853 14.6177 125.342C14.3433 125.831 14.2707 126.401 14.4001 127.051L15.0097 130.116L13.4772 130.421Z" fill="#FFFCF5"/>
<path d="M19.0105 95.4439L8.31102 93.3156L9.18116 88.9411C9.41025 87.7894 9.85228 86.9263 10.5073 86.3517C11.1622 85.7772 11.917 85.5749 12.7714 85.7449C13.4216 85.8742 13.8871 86.1671 14.168 86.6237C14.4443 87.0793 14.5851 87.6215 14.5904 88.2501C14.7246 87.8665 14.9401 87.5111 15.2369 87.1839C15.5346 86.8521 15.903 86.6019 16.3421 86.4334C16.7765 86.2639 17.2746 86.2351 17.8365 86.3469C18.3845 86.4559 18.8467 86.6926 19.2232 87.0572C19.5996 87.4217 19.8615 87.889 20.0088 88.459C20.1562 89.029 20.1578 89.6762 20.0137 90.4006L19.0105 95.4439ZM17.8162 93.5842L18.509 90.1013C18.6217 89.5348 18.5753 89.0645 18.3697 88.6905C18.1641 88.3165 17.8291 88.0833 17.3647 87.9909C16.8121 87.881 16.346 87.9549 15.9665 88.2125C15.5823 88.4692 15.3339 88.8808 15.2212 89.4473L14.5284 92.9302L17.8162 93.5842ZM13.1074 92.6476L13.6671 89.8334C13.7549 89.3922 13.7698 89.0018 13.7119 88.662C13.6493 88.3212 13.5209 88.0446 13.3266 87.8322C13.1286 87.6142 12.8717 87.4738 12.5559 87.411C12.1054 87.3214 11.7151 87.4392 11.3848 87.7646C11.05 88.089 10.8169 88.5809 10.6858 89.2404L10.126 92.0546L13.1074 92.6476Z" fill="#FFFCF5"/>
<path d="M21.5908 76.1587L15.8068 68.0742L16.5461 66.2894L26.6248 70.4641L25.9834 72.0127L18.1881 68.7838L23.983 76.8421L23.2328 78.6531L13.1541 74.4783L13.7956 72.9298L21.5908 76.1587Z" fill="#FFFCF5"/>
<path d="M32.8603 65.2006L28.9628 62.5963L29.4678 61.8405C29.3985 61.5265 29.2964 61.2277 29.1615 60.9439C29.0265 60.6601 28.8384 60.3664 28.597 60.0628C28.3544 59.7526 28.0344 59.4135 27.6368 59.0453C27.2354 58.6746 26.7362 58.2499 26.1391 57.7713L22.7539 55.0651L26.605 49.3015L34.3764 54.4942L35.3076 53.1006L39.2051 55.7048L38.2739 57.0985L35.6756 55.3623L31.1931 62.0708L33.7915 63.8069L32.8603 65.2006ZM30.5253 60.2578L33.4452 55.8879L26.973 51.5633L24.9211 54.634L27.0546 56.4012C27.9376 57.1336 28.6848 57.8094 29.2961 58.4285C29.9074 59.0477 30.3171 59.6575 30.5253 60.2578Z" fill="#FFFCF5"/>
<path d="M44.8047 45.3186C44.0614 46.0619 43.2562 46.539 42.3891 46.7499C41.522 46.9542 40.6464 46.9056 39.7626 46.6043C38.8787 46.2963 38.0417 45.7472 37.2515 44.9571C36.4614 44.1669 35.909 43.3266 35.5942 42.436C35.2795 41.5387 35.2126 40.6615 35.3934 39.8044C35.5742 38.9406 36.0127 38.1605 36.7091 37.4641C37.1109 37.0624 37.5746 36.7326 38.1003 36.4748C38.6259 36.217 39.2001 36.078 39.8228 36.058C40.4422 36.0345 41.0934 36.1735 41.7764 36.4748C42.4594 36.7761 43.1608 37.2867 43.8806 38.0065L44.3829 38.5087L38.4367 44.4549L37.4122 43.4303L42.1531 38.6895C41.7178 38.2543 41.2424 37.9529 40.7268 37.7855C40.2145 37.6148 39.7006 37.5897 39.185 37.7102C38.6728 37.8274 38.2024 38.1003 37.7738 38.5288C37.3017 39.0009 37.0105 39.5265 36.9 40.1057C36.7895 40.6783 36.828 41.2424 37.0155 41.7982C37.203 42.354 37.5093 42.8444 37.9345 43.2696L38.6175 43.9526C39.2001 44.5352 39.7944 44.9286 40.4004 45.1328C41.0064 45.3304 41.5956 45.3538 42.1681 45.2031C42.7373 45.0491 43.2613 44.7327 43.74 44.254C44.0514 43.9426 44.2891 43.6178 44.4532 43.2797C44.6172 42.9348 44.7026 42.5816 44.7093 42.22C44.7126 41.8551 44.6306 41.4885 44.4632 41.1202L45.9297 40.2966C46.1975 40.8055 46.3364 41.3495 46.3465 41.9288C46.3532 42.5046 46.2293 43.0838 45.9749 43.6664C45.7171 44.2456 45.327 44.7964 44.8047 45.3186Z" fill="#FFFCF5"/>
<path d="M58.2027 34.3571C57.3838 34.9042 56.5351 35.1894 55.6566 35.2127C54.782 35.2333 53.9374 35.009 53.1227 34.5397C52.3119 34.0678 51.5935 33.3633 50.9675 32.4264C50.3361 31.4815 49.9563 30.5423 49.8279 29.6087C49.7035 28.6726 49.8182 27.8044 50.1719 27.0043C50.5296 26.2015 51.1178 25.5266 51.9367 24.9794C52.7556 24.4323 53.6023 24.1484 54.4769 24.1278C55.3554 24.1045 56.2013 24.3308 57.0147 24.8067C57.832 25.2799 58.5563 25.9889 59.1877 26.9338C59.8137 27.8708 60.1877 28.8054 60.3095 29.7376C60.4352 30.6673 60.3192 31.5334 59.9616 32.3362C59.6078 33.1363 59.0215 33.8099 58.2027 34.3571ZM57.3661 33.1052C57.9882 32.6895 58.3934 32.1881 58.5819 31.6009C58.7704 31.0137 58.7875 30.3958 58.6332 29.7473C58.4788 29.0987 58.1991 28.4713 57.794 27.865C57.3889 27.2587 56.915 26.7582 56.3722 26.3635C55.8294 25.9688 55.2494 25.7442 54.6322 25.6897C54.0149 25.6352 53.3952 25.8157 52.7732 26.2314C52.1512 26.647 51.7472 27.1504 51.5614 27.7415C51.3755 28.3327 51.3611 28.9545 51.518 29.607C51.675 30.2595 51.956 30.8889 52.3611 31.4951C52.7662 32.1014 53.2388 32.6 53.779 32.9907C54.3191 33.3815 54.8965 33.6022 55.5111 33.6527C56.1258 33.7033 56.7441 33.5208 57.3661 33.1052Z" fill="#FFFCF5"/>
<path d="M108.459 19.2273C107.437 19.2273 106.556 18.9858 105.817 18.5028C105.079 18.0199 104.51 17.3546 104.113 16.5071C103.715 15.6596 103.516 14.6913 103.516 13.6023C103.516 12.4943 103.72 11.5166 104.127 10.669C104.539 9.81676 105.112 9.15152 105.846 8.6733C106.584 8.19034 107.446 7.94886 108.431 7.94886C109.198 7.94886 109.889 8.09091 110.505 8.375C111.12 8.65909 111.625 9.05682 112.018 9.56818C112.411 10.0795 112.654 10.6761 112.749 11.358H111.073C110.945 10.8608 110.661 10.4205 110.221 10.0369C109.785 9.64867 109.198 9.45455 108.459 9.45455C107.806 9.45455 107.233 9.625 106.741 9.96591C106.253 10.3021 105.872 10.7779 105.597 11.3935C105.327 12.0043 105.192 12.7216 105.192 13.5455C105.192 14.3883 105.325 15.1222 105.59 15.7472C105.86 16.3722 106.239 16.8575 106.726 17.2031C107.219 17.5488 107.796 17.7216 108.459 17.7216C108.895 17.7216 109.29 17.6458 109.645 17.4943C110.001 17.3428 110.301 17.125 110.547 16.8409C110.794 16.5568 110.969 16.2159 111.073 15.8182H112.749C112.654 16.4621 112.42 17.0421 112.046 17.5582C111.677 18.0696 111.187 18.4768 110.576 18.7798C109.97 19.0781 109.264 19.2273 108.459 19.2273Z" fill="#FFFCF5"/>
<path d="M126.57 18.5976L131.989 10.8698L133.549 11.1802L126.796 20.9596L125.458 20.6936L123.045 9.09072L124.577 9.39555L126.57 18.5976ZM124.048 9.29024L121.92 19.9897L120.276 19.6627L122.404 8.96325L124.048 9.29024ZM130.334 21.6635L132.463 10.964L134.106 11.291L131.978 21.9905L130.334 21.6635Z" fill="#FFFCF5"/>
<path d="M142.432 26.0604C141.522 25.6835 140.813 25.1363 140.306 24.4188C139.803 23.703 139.52 22.8761 139.458 21.938C139.4 21.0017 139.586 20.013 140.018 18.9719C140.452 17.9221 141.022 17.0844 141.727 16.4591C142.436 15.8355 143.222 15.4485 144.084 15.2981C144.95 15.1495 145.838 15.2636 146.748 15.6405C147.658 16.0174 148.364 16.5637 148.867 17.2795C149.375 17.997 149.656 18.8261 149.713 19.7668C149.773 20.7092 149.586 21.7054 149.151 22.7553C148.72 23.7964 148.151 24.6265 147.443 25.2457C146.74 25.8667 145.955 26.2516 145.089 26.4001C144.228 26.5505 143.342 26.4373 142.432 26.0604ZM143.008 24.6694C143.699 24.9556 144.341 25.014 144.934 24.8445C145.527 24.675 146.05 24.3459 146.504 23.8573C146.957 23.3687 147.324 22.7875 147.603 22.1138C147.882 21.4402 148.035 20.7681 148.061 20.0975C148.088 19.4269 147.952 18.8198 147.655 18.2763C147.357 17.7328 146.863 17.3179 146.172 17.0316C145.481 16.7453 144.838 16.6891 144.243 16.863C143.648 17.0369 143.123 17.3703 142.668 17.8633C142.212 18.3564 141.845 18.9397 141.566 19.6134C141.287 20.287 141.135 20.957 141.11 21.6232C141.085 22.2894 141.223 22.8921 141.522 23.4312C141.822 23.9703 142.317 24.3831 143.008 24.6694Z" fill="#FFFCF5"/>
<path d="M160.002 24.2113L160.87 22.9121L168.24 27.8365L167.372 29.1356L164.396 27.147L159.203 34.9184L157.809 33.9871L163.002 26.2157L160.002 24.2113Z" fill="#FFFCF5"/>
<path d="M165.956 45.3824L176.562 34.7758L177.707 35.9208L176.482 37.1462L176.623 37.2868C176.844 37.2399 177.135 37.1897 177.496 37.1362C177.865 37.0826 178.276 37.1194 178.732 37.2466C179.194 37.3739 179.676 37.6886 180.178 38.1908C180.828 38.8403 181.238 39.5752 181.409 40.3955C181.579 41.2157 181.506 42.0628 181.188 42.9366C180.87 43.8105 180.305 44.6525 179.495 45.4627C178.678 46.2797 177.831 46.8488 176.954 47.1702C176.08 47.4883 175.233 47.5653 174.413 47.4013C173.596 47.2339 172.866 46.8287 172.223 46.1859C171.728 45.6904 171.413 45.2116 171.279 44.7496C171.148 44.2842 171.108 43.8657 171.159 43.4941C171.212 43.1191 171.266 42.8178 171.319 42.5901L171.219 42.4897L167.141 46.5676L165.956 45.3824ZM173.87 39.7978C173.288 40.3804 172.859 40.9797 172.585 41.5957C172.314 42.2084 172.217 42.8044 172.294 43.3836C172.374 43.9595 172.652 44.4851 173.127 44.9605C173.623 45.456 174.167 45.739 174.759 45.8093C175.359 45.8796 175.965 45.7758 176.577 45.4979C177.197 45.22 177.781 44.8065 178.33 44.2574C178.872 43.7151 179.278 43.1425 179.545 42.5399C179.82 41.9372 179.917 41.3413 179.837 40.752C179.763 40.1628 179.475 39.6171 178.973 39.1148C178.491 38.6327 177.963 38.3498 177.391 38.2661C176.822 38.1791 176.236 38.2695 175.633 38.5373C175.034 38.8018 174.446 39.222 173.87 39.7978Z" fill="#FFFCF5"/>
<path d="M182.883 59.3642C182.299 58.4902 181.988 57.6074 181.95 56.7158C181.919 55.8254 182.137 54.9762 182.605 54.1681C183.08 53.3613 183.782 52.6475 184.711 52.0267C185.64 51.4059 186.572 51.028 187.507 50.8931C188.448 50.7595 189.322 50.8649 190.127 51.2094C190.939 51.5553 191.618 52.1376 192.166 52.9565C192.481 53.4289 192.714 53.9481 192.864 54.5139C193.015 55.0797 193.039 55.67 192.937 56.2847C192.839 56.8968 192.576 57.5083 192.147 58.1194C191.718 58.7305 191.081 59.3188 190.234 59.8844L189.644 60.279L184.972 53.2871L186.177 52.4821L189.902 58.0568C190.413 57.7148 190.802 57.3073 191.066 56.8343C191.334 56.3652 191.459 55.866 191.441 55.3368C191.426 54.8115 191.25 54.2969 190.914 53.793C190.543 53.2379 190.084 52.8497 189.537 52.6283C188.997 52.4083 188.437 52.336 187.855 52.4114C187.273 52.4869 186.732 52.6917 186.232 53.0257L185.429 53.5624C184.744 54.0201 184.243 54.5262 183.924 55.0807C183.612 55.6365 183.474 56.2099 183.51 56.8008C183.55 57.3891 183.758 57.9647 184.134 58.5277C184.379 58.8938 184.651 59.1903 184.951 59.4172C185.257 59.6454 185.587 59.798 185.94 59.8751C186.298 59.9496 186.673 59.9407 187.067 59.8483L187.589 61.4473C187.037 61.6107 186.477 61.6408 185.907 61.5377C185.34 61.4319 184.797 61.1974 184.275 60.8342C183.757 60.4683 183.293 59.9783 182.883 59.3642Z" fill="#FFFCF5"/>
<path d="M198.358 67.3482L199.802 66.7503L203.194 74.9392L201.75 75.5372L200.38 72.2301L191.745 75.8069L191.104 74.2583L199.739 70.6815L198.358 67.3482Z" fill="#FFFCF5"/>
<path d="M202.678 87.5791L203.287 90.644C203.537 91.8979 203.409 92.9201 202.905 93.7107C202.401 94.5013 201.661 94.9936 200.686 95.1876C200.045 95.3151 199.433 95.2824 198.849 95.0896C198.27 94.8958 197.767 94.542 197.342 94.028C196.921 93.5132 196.627 92.8378 196.461 92.0019L195.568 87.5159L206.268 85.3877L206.595 87.0316L197.428 88.855L197.993 91.6971C198.123 92.3472 198.401 92.8471 198.827 93.1967C199.254 93.5463 199.737 93.6675 200.276 93.5603C200.842 93.4476 201.263 93.1467 201.537 92.6577C201.811 92.1686 201.884 91.599 201.755 90.9488L201.145 87.8839L202.678 87.5791Z" fill="#FFFCF5"/>
<path d="M197.144 122.556L207.844 124.684L206.974 129.059C206.745 130.211 206.303 131.074 205.648 131.648C204.993 132.223 204.238 132.425 203.383 132.255C202.733 132.126 202.268 131.833 201.987 131.376C201.711 130.921 201.57 130.379 201.564 129.75C201.43 130.134 201.215 130.489 200.918 130.816C200.62 131.148 200.252 131.398 199.813 131.567C199.378 131.736 198.88 131.765 198.318 131.653C197.77 131.544 197.308 131.307 196.932 130.943C196.555 130.578 196.293 130.111 196.146 129.541C195.999 128.971 195.997 128.324 196.141 127.599L197.144 122.556ZM198.339 124.416L197.646 127.899C197.533 128.465 197.58 128.935 197.785 129.309C197.991 129.683 198.326 129.917 198.79 130.009C199.343 130.119 199.809 130.045 200.188 129.788C200.572 129.531 200.821 129.119 200.934 128.553L201.626 125.07L198.339 124.416ZM203.047 125.352L202.488 128.167C202.4 128.608 202.385 128.998 202.443 129.338C202.505 129.679 202.634 129.955 202.828 130.168C203.026 130.386 203.283 130.526 203.599 130.589C204.049 130.679 204.44 130.561 204.77 130.235C205.105 129.911 205.338 129.419 205.469 128.76L206.029 125.945L203.047 125.352Z" fill="#FFFCF5"/>
<path d="M194.564 141.841L200.348 149.926L199.609 151.711L189.53 147.536L190.171 145.987L197.967 149.216L192.172 141.158L192.922 139.347L203.001 143.522L202.359 145.07L194.564 141.841Z" fill="#FFFCF5"/>
<path d="M183.295 152.799L187.192 155.404L186.687 156.16C186.756 156.473 186.858 156.772 186.993 157.056C187.128 157.34 187.316 157.634 187.558 157.937C187.8 158.247 188.12 158.587 188.518 158.955C188.919 159.325 189.419 159.75 190.016 160.229L193.401 162.935L189.55 168.698L181.778 163.506L180.847 164.899L176.95 162.295L177.881 160.902L180.479 162.638L184.962 155.929L182.363 154.193L183.295 152.799ZM185.629 157.742L182.71 162.112L189.182 166.437L191.234 163.366L189.1 161.599C188.217 160.866 187.47 160.191 186.859 159.571C186.247 158.952 185.838 158.343 185.629 157.742Z" fill="#FFFCF5"/>
<path d="M171.354 172.682C172.097 171.939 172.902 171.462 173.77 171.251C174.637 171.047 175.512 171.095 176.396 171.397C177.28 171.705 178.117 172.254 178.907 173.044C179.697 173.834 180.25 174.674 180.564 175.565C180.879 176.462 180.946 177.339 180.765 178.197C180.585 179.06 180.146 179.84 179.45 180.537C179.048 180.939 178.584 181.268 178.058 181.526C177.533 181.784 176.959 181.923 176.336 181.943C175.716 181.966 175.065 181.828 174.382 181.526C173.699 181.225 172.998 180.714 172.278 179.994L171.776 179.492L177.722 173.546L178.746 174.571L174.006 179.311C174.441 179.747 174.916 180.048 175.432 180.215C175.944 180.386 176.458 180.411 176.974 180.291C177.486 180.174 177.956 179.901 178.385 179.472C178.857 179 179.148 178.474 179.259 177.895C179.369 177.323 179.331 176.759 179.143 176.203C178.956 175.647 178.649 175.157 178.224 174.731L177.541 174.048C176.959 173.466 176.364 173.072 175.758 172.868C175.152 172.671 174.563 172.647 173.991 172.798C173.421 172.952 172.897 173.268 172.419 173.747C172.107 174.058 171.87 174.383 171.706 174.721C171.541 175.066 171.456 175.419 171.449 175.781C171.446 176.146 171.528 176.512 171.695 176.881L170.229 177.704C169.961 177.195 169.822 176.651 169.812 176.072C169.806 175.496 169.929 174.917 170.184 174.335C170.442 173.755 170.832 173.205 171.354 172.682Z" fill="#FFFCF5"/>
<path d="M157.952 183.643C158.771 183.096 159.62 182.811 160.498 182.787C161.373 182.767 162.217 182.991 163.032 183.46C163.843 183.932 164.561 184.637 165.187 185.574C165.819 186.518 166.198 187.458 166.327 188.391C166.451 189.327 166.337 190.196 165.983 190.996C165.625 191.798 165.037 192.473 164.218 193.021C163.399 193.568 162.552 193.852 161.678 193.872C160.799 193.895 159.953 193.669 159.14 193.193C158.323 192.72 157.598 192.011 156.967 191.066C156.341 190.129 155.967 189.195 155.845 188.262C155.72 187.333 155.836 186.467 156.193 185.664C156.547 184.864 157.133 184.19 157.952 183.643ZM158.789 184.895C158.167 185.31 157.761 185.812 157.573 186.399C157.384 186.986 157.367 187.604 157.522 188.253C157.676 188.901 157.956 189.529 158.361 190.135C158.766 190.741 159.24 191.242 159.783 191.636C160.325 192.031 160.905 192.256 161.523 192.31C162.14 192.365 162.76 192.184 163.382 191.769C164.004 191.353 164.408 190.85 164.593 190.258C164.779 189.667 164.794 189.046 164.637 188.393C164.48 187.741 164.199 187.111 163.794 186.505C163.389 185.899 162.916 185.4 162.376 185.009C161.836 184.619 161.258 184.398 160.644 184.347C160.029 184.297 159.411 184.479 158.789 184.895Z" fill="#FFFCF5"/>
<path d="M81.5651 18.8273C83.2019 16.7202 84.4695 14.3499 85.3131 11.8171C83.6485 13.9042 82.3473 16.2563 81.4755 18.7786C79.3685 17.1418 76.9982 15.8743 74.4654 15.0306C76.5525 16.6953 78.9045 17.9964 81.4269 18.8682C79.7901 20.9752 78.5225 23.3455 77.6789 25.8784C79.3435 23.7913 80.6447 21.4392 81.5165 18.9168C83.6235 20.5536 85.9938 21.8212 88.5266 22.6648C86.4395 21.0002 84.0875 19.6991 81.5651 18.8273Z" fill="#FFFCF5"/>
<path d="M137.565 199.827C139.202 197.72 140.469 195.35 141.313 192.817C139.648 194.904 138.347 197.256 137.476 199.779C135.368 198.142 132.998 196.874 130.465 196.031C132.552 197.695 134.905 198.996 137.427 199.868C135.79 201.975 134.523 204.346 133.679 206.878C135.344 204.791 136.645 202.439 137.516 199.917C139.623 201.554 141.994 202.821 144.527 203.665C142.44 202 140.087 200.699 137.565 199.827Z" fill="#FFFCF5"/>
</svg>
