<svg width="47" height="50" viewBox="0 0 47 50" fill="none" xmlns="http://www.w3.org/2000/svg">
<path d="M46.8982 20.0959C46.9618 20.0348 47 19.9614 47 19.8758C47 19.7901 46.9618 19.7168 46.8982 19.6556L46.58 19.3498C44.6707 17.5519 42.5832 16.0109 40.343 14.7266C42.5832 13.4424 44.6707 11.9013 46.58 10.1034L46.8982 9.79766C46.9618 9.7365 47 9.66312 47 9.5775C47 9.49189 46.9618 9.4185 46.8982 9.35735L46.58 9.05158C40.3175 3.15638 32.0313 -0.0602974 23.2741 0.000856181C14.5041 0.0620097 6.28152 3.37653 0.0954638 9.35735C-0.0318213 9.47966 -0.0318213 9.66312 0.0954638 9.78543C2.08111 11.7056 4.28314 13.3568 6.65064 14.7144C4.28314 16.072 2.08111 17.7109 0.0954638 19.6434C-0.0318213 19.7657 -0.0318213 19.9491 0.0954638 20.0715C2.08111 21.9917 4.28314 23.6428 6.65064 25.0004C4.28314 26.358 2.08111 27.997 0.0954638 29.9294C-0.0318213 30.0517 -0.0318213 30.2352 0.0954638 30.3575C2.08111 32.2777 4.28314 33.9288 6.65064 35.2865C4.28314 36.6441 2.08111 38.283 0.0954638 40.2154C-0.0318213 40.3377 -0.0318213 40.5212 0.0954638 40.6435C6.28152 46.6243 14.5041 49.9388 23.2741 50C23.3504 50 23.4268 50 23.5032 50C32.184 50 40.3685 46.7956 46.58 40.9493L46.8982 40.6435C46.9618 40.5824 47 40.509 47 40.4234C47 40.3377 46.9618 40.2644 46.8982 40.2032L46.58 39.8974C44.6707 38.0995 42.5832 36.5584 40.343 35.2742C42.5832 33.99 44.6707 32.4489 46.58 30.651L46.8982 30.3453C46.9618 30.2841 47 30.2107 47 30.1251C47 30.0395 46.9618 29.9661 46.8982 29.9049L46.58 29.5992C44.6707 27.8013 42.5832 26.2602 40.343 24.976C42.5832 23.6917 44.6707 22.1507 46.58 20.3528L46.8982 20.0959ZM0.757347 9.58973C6.79066 3.86576 14.7714 0.685776 23.2613 0.636853C23.3377 0.636853 23.4141 0.636853 23.4905 0.636853C32.0058 0.636853 40.0375 3.78015 46.1217 9.51635L46.2108 9.60196L46.1217 9.68758C44.1615 11.5344 42.0104 13.0999 39.6938 14.3964C34.7297 11.6934 29.1037 10.2747 23.2486 10.3236C17.559 10.3603 12.0857 11.779 7.26161 14.3964C4.9323 13.0755 2.74299 11.4733 0.757347 9.58973ZM39.0574 14.7389C34.2715 17.2706 28.8746 18.5915 23.2741 18.5548C17.8263 18.5182 12.5821 17.1972 7.93622 14.7389C12.5821 12.2805 17.8263 10.9596 23.2741 10.9229C23.3504 10.9229 23.4268 10.9229 23.5032 10.9229C29.0146 10.9107 34.3351 12.2438 39.0574 14.7389ZM46.1217 40.35L46.2108 40.4356L46.1217 40.5212C39.9739 46.3063 31.8658 49.4496 23.2613 49.4007C14.7714 49.3395 6.79066 46.1718 0.757347 40.4478C2.73026 38.5765 4.91957 36.9743 7.27434 35.6656C12.0984 38.2952 17.5717 39.7017 23.2613 39.7384C23.3377 39.7384 23.4141 39.7384 23.4905 39.7384C29.2565 39.7384 34.8061 38.3197 39.6938 35.6656C42.0104 36.9376 44.1743 38.5031 46.1217 40.35ZM7.92349 35.2987C12.5694 32.8403 17.8135 31.5194 23.2613 31.4827C23.3377 31.4827 23.4141 31.4827 23.4905 31.4827C29.0146 31.4827 34.3351 32.8036 39.0447 35.2987C34.2588 37.8304 28.8619 39.1514 23.2613 39.1147C17.8135 39.078 12.5694 37.7448 7.92349 35.2987ZM46.1217 30.0639L46.2108 30.1496L46.1217 30.2352C44.1615 32.082 42.0104 33.6475 39.6938 34.944C34.7934 32.2777 29.2565 30.8712 23.4905 30.8712C23.4141 30.8712 23.3377 30.8712 23.2613 30.8712C17.5717 30.9079 12.0984 32.3266 7.27434 34.944C4.9323 33.6353 2.74299 32.0331 0.757347 30.1496C2.73026 28.2783 4.91957 26.676 7.27434 25.3673C12.0984 27.997 17.5717 29.4035 23.2613 29.4402C23.3377 29.4402 23.4141 29.4402 23.4905 29.4402C29.2565 29.4402 34.8061 28.0214 39.6938 25.3673C42.0104 26.6516 44.1743 28.2293 46.1217 30.0639ZM7.92349 25.0127C12.5694 22.5543 17.8135 21.2334 23.2613 21.1967C23.3377 21.1967 23.4141 21.1967 23.4905 21.1967C29.0146 21.1967 34.3351 22.5176 39.0447 25.0127C34.2588 27.5444 28.8619 28.8653 23.2613 28.8286C17.8135 28.792 12.5694 27.471 7.92349 25.0127ZM46.1217 19.9614C44.1615 21.8082 42.0104 23.3737 39.6938 24.6702C34.7297 21.9794 29.1037 20.5607 23.2613 20.5974C17.5717 20.6341 12.0984 22.0528 7.27434 24.6702C4.9323 23.3493 2.74299 21.7471 0.757347 19.8758C2.73026 18.0045 4.91957 16.4022 7.27434 15.0936C12.0984 17.7232 17.5717 19.1297 23.2613 19.1664C23.3377 19.1664 23.4141 19.1664 23.4905 19.1664C29.2565 19.1664 34.8061 17.7476 39.6938 15.0936C41.9977 16.3778 44.1615 17.9555 46.1217 19.8024L46.2108 19.888L46.1217 19.9614Z" fill="#010101"/>
</svg>
